<?xml version="1.0" standalone="no"?>
<!DOCTYPE svg PUBLIC "-//W3C//DTD SVG 20010904//EN"
 "http://www.w3.org/TR/2001/REC-SVG-20010904/DTD/svg10.dtd">
<svg version="1.0" xmlns="http://www.w3.org/2000/svg"
 width="1920.000000pt" height="1254.000000pt" viewBox="0 0 1920.000000 1254.000000"
 preserveAspectRatio="xMidYMid meet">

<g transform="translate(0.000000,1254.000000) scale(0.100000,-0.100000)"
fill="#000000" stroke="none">
<path d="M14654 10525 c3 -8 1 -15 -4 -15 -6 0 -10 -10 -9 -22 0 -15 2 -18 6
-8 3 8 12 22 20 31 12 14 12 17 -3 23 -12 4 -15 2 -10 -9z"/>
<path d="M14690 10530 c0 -5 5 -10 10 -10 6 0 10 5 10 10 0 6 -4 10 -10 10 -5
0 -10 -4 -10 -10z"/>
<path d="M14748 10521 c19 -17 27 -18 48 -9 13 6 24 15 24 20 0 5 -10 2 -23
-7 -21 -13 -26 -13 -48 1 l-24 16 23 -21z"/>
<path d="M14835 10529 c-4 -6 -4 -13 -1 -16 3 -4 6 -1 6 5 0 6 7 9 15 6 12 -5
13 -10 4 -20 -8 -9 -8 -14 -1 -14 18 0 24 20 12 35 -15 18 -26 19 -35 4z"/>
<path d="M14684 10495 c-20 -15 -11 -18 20 -6 11 4 15 10 9 14 -5 3 -19 0 -29
-8z"/>
<path d="M14760 10481 l-54 -16 224 -206 c198 -181 601 -550 1868 -1706 182
-167 332 -308 332 -313 0 -9 -40 -135 -365 -1160 -90 -283 -234 -738 -320
-1010 -265 -837 -297 -934 -314 -954 -15 -18 -15 -18 19 -14 19 3 44 8 55 12
15 6 17 6 5 -2 -10 -8 -2 -10 33 -9 26 1 47 3 47 5 0 2 -6 15 -14 30 -12 25
-8 43 46 212 33 102 155 489 273 860 118 371 311 981 430 1355 118 374 218
687 220 696 4 11 -59 74 -202 205 -115 105 -446 408 -738 674 -291 267 -732
670 -980 896 -247 226 -463 423 -480 436 l-30 25 -55 -16z m1500 -5361 c0 -5
-5 -10 -11 -10 -5 0 -7 5 -4 10 3 6 8 10 11 10 2 0 4 -4 4 -10z"/>
<path d="M14393 10453 c9 -2 23 -2 30 0 6 3 -1 5 -18 5 -16 0 -22 -2 -12 -5z"/>
<path d="M14458 10452 c12 -2 22 -7 22 -12 0 -5 -15 -6 -34 -3 -19 3 -36 1
-40 -6 -4 -6 -18 -11 -31 -11 -13 0 -27 -4 -30 -10 -4 -6 8 -10 30 -10 22 0
34 4 30 10 -3 6 2 10 12 11 59 3 103 10 141 21 l42 14 -82 0 c-46 0 -73 -2
-60 -4z"/>
<path d="M14910 10451 c0 -11 21 -19 38 -14 6 3 12 9 12 15 0 6 -6 6 -15 -2
-10 -9 -15 -9 -15 -1 0 6 -4 11 -10 11 -5 0 -10 -4 -10 -9z"/>
<path d="M14330 10440 c-8 -5 -12 -11 -9 -14 7 -8 49 5 49 15 0 12 -21 11 -40
-1z"/>
<path d="M13775 10218 c-407 -109 -976 -262 -1265 -339 -289 -77 -675 -181
-859 -230 -184 -50 -340 -88 -348 -85 -8 3 -12 2 -9 -2 7 -12 -130 -46 -145
-36 -7 4 -10 3 -6 -2 8 -13 -976 -276 -999 -267 -11 4 -15 3 -11 -4 8 -12 -78
-37 -94 -28 -5 4 -9 2 -9 -3 0 -5 -20 -15 -44 -21 -54 -13 -59 -14 -51 -2 6
10 -8 16 -65 26 -27 5 -32 4 -20 -5 11 -9 12 -13 3 -17 -7 -2 -13 -13 -13 -23
0 -11 -10 -20 -26 -24 -33 -9 -45 1 -15 12 16 5 5 8 -38 9 -33 1 -63 -2 -66
-7 -3 -5 10 -9 31 -7 22 1 39 -3 41 -10 3 -7 -3 -13 -12 -13 -9 0 -13 5 -10
10 3 6 -1 10 -9 10 -9 0 -13 -6 -10 -14 5 -14 -42 -33 -54 -21 -3 3 2 5 11 5
10 0 17 4 17 9 0 5 -9 7 -20 4 -11 -3 -20 -12 -20 -19 0 -8 -7 -14 -15 -14
-18 0 -20 17 -2 23 6 2 -7 4 -30 4 -23 0 -40 -3 -38 -8 3 -4 0 -11 -6 -15 -8
-4 -7 -9 2 -16 11 -7 9 -8 -4 -4 -10 3 -23 6 -29 6 -18 0 -3 45 20 55 28 12
29 25 1 25 -11 0 -17 -4 -14 -10 3 -5 -1 -10 -9 -10 -12 0 -16 -10 -16 -35 0
-19 -5 -35 -11 -35 -5 0 -7 -5 -3 -12 5 -8 0 -9 -14 -6 -12 4 -22 2 -22 -3 0
-5 -7 -9 -15 -9 -25 0 -17 19 10 26 14 4 24 9 21 11 -5 5 -59 -11 -126 -38
-37 -15 -40 -19 -20 -20 24 -1 23 -1 -5 -10 -19 -5 -31 -5 -33 1 -5 15 -22 12
-19 -2 1 -9 -8 -12 -28 -10 -19 2 -34 -3 -42 -14 -7 -10 -16 -15 -19 -11 -4 4
-14 2 -21 -5 -11 -9 -16 -9 -22 0 -3 6 -15 11 -26 11 -34 0 -60 6 -67 16 -5 7
-11 6 -15 -1 -5 -6 -15 -14 -23 -17 -9 -4 -5 -6 10 -5 51 2 70 -2 70 -17 0
-18 -12 -19 -28 -3 -14 14 -65 -9 -55 -25 4 -6 0 -8 -10 -4 -10 4 -23 10 -31
13 -9 3 -17 -3 -21 -15 -7 -23 -20 -27 -30 -11 -3 6 -14 10 -23 10 -14 0 -15
-2 -2 -10 8 -5 11 -12 7 -16 -4 -4 -13 -2 -19 4 -17 17 -31 15 -24 -3 3 -8 1
-15 -3 -15 -5 0 -11 7 -15 15 -3 8 -11 15 -18 15 -10 0 -9 -3 1 -9 11 -7 9
-10 -10 -13 -13 -2 -23 -9 -22 -16 4 -15 1 -15 -31 1 -14 8 -23 17 -20 20 4 3
-10 1 -31 -4 -21 -6 -46 -9 -56 -6 -15 4 -16 2 -6 -14 13 -20 23 -24 29 -11 2
5 17 12 33 15 17 3 24 4 18 1 -7 -3 -13 -13 -13 -21 0 -9 -6 -13 -15 -9 -8 3
-15 1 -15 -5 0 -6 -7 -8 -17 -5 -9 4 -20 1 -25 -6 -8 -10 -11 -10 -15 0 -7 18
-23 15 -23 -5 0 -15 -2 -15 -9 -4 -6 9 -16 11 -27 7 -16 -6 -16 -9 -4 -17 11
-7 6 -8 -14 -3 -21 5 -27 4 -22 -5 4 -6 3 -11 -3 -11 -5 0 -11 5 -13 11 -5 15
-58 0 -58 -17 0 -8 -5 -14 -11 -14 -6 0 -9 7 -5 15 3 8 1 15 -3 15 -5 0 -16 3
-25 6 -9 3 -16 1 -16 -5 0 -6 7 -11 15 -11 17 0 20 -16 5 -25 -6 -3 -13 1 -16
10 -4 9 -13 14 -20 11 -9 -3 -11 0 -7 11 4 11 2 14 -5 9 -16 -10 -15 -22 4
-41 15 -15 14 -15 -11 -9 -22 5 -26 4 -20 -6 6 -9 4 -11 -5 -5 -6 4 -29 9 -49
11 -20 1 -27 0 -16 -3 11 -3 25 -10 30 -15 7 -8 6 -8 -4 -3 -8 4 -17 2 -23 -6
-7 -11 -11 -11 -15 -1 -2 6 -14 12 -26 12 -18 0 -19 -2 -7 -10 8 -5 11 -12 7
-16 -3 -4 -13 -1 -21 6 -10 8 -30 10 -58 5 -67 -10 -80 -16 -74 -31 3 -9 -1
-14 -14 -14 -11 0 -20 -4 -20 -9 0 -5 -9 -7 -20 -4 -13 3 -20 0 -20 -8 0 -11
-2 -11 -10 1 -8 12 -10 12 -15 -3 -6 -14 -11 -15 -28 -5 -21 11 -21 11 -2 19
20 9 20 9 0 6 -15 -2 -19 -9 -17 -27 1 -19 0 -21 -7 -10 -8 11 -15 12 -33 3
-78 -36 -128 -47 -128 -29 0 8 -2 8 -8 0 -12 -19 -50 -35 -54 -23 -2 7 -12 7
-32 -1 -20 -7 -32 -8 -40 0 -5 5 -17 10 -25 10 -10 0 -4 -8 14 -20 33 -22 30
-25 -10 -10 -17 7 -24 7 -20 0 3 -6 -1 -10 -9 -10 -17 0 -30 16 -19 23 5 2 2
2 -5 0 -7 -1 -23 2 -35 8 -22 10 -22 10 -2 -7 19 -16 19 -16 -10 -10 -16 3
-40 8 -52 12 -13 4 -23 2 -23 -4 0 -10 64 -27 88 -23 6 1 20 -3 30 -9 15 -9
14 -10 -5 -5 -13 4 -38 -1 -59 -11 -21 -10 -54 -17 -74 -16 -26 2 -39 -2 -43
-12 -4 -10 -13 -13 -22 -9 -10 3 -12 8 -7 12 6 3 -12 6 -38 6 -26 0 -46 -3
-43 -7 2 -5 20 -8 39 -8 19 0 34 -4 34 -10 0 -5 -6 -10 -14 -10 -8 0 -22 -3
-32 -7 -12 -4 -15 -3 -10 5 5 8 2 10 -8 6 -9 -3 -16 -10 -16 -14 0 -10 -41
-21 -53 -13 -5 3 -3 9 4 14 8 5 9 9 3 9 -6 0 -19 -9 -29 -20 -10 -11 -29 -20
-42 -20 -13 0 -22 -4 -19 -9 3 -4 -6 -6 -19 -3 -14 2 -25 0 -25 -6 0 -5 -15
-8 -32 -7 -18 2 -39 3 -46 4 -7 1 -10 6 -6 13 4 7 3 8 -5 4 -14 -9 -5 -26 15
-26 8 0 12 -5 9 -10 -4 -7 -12 -7 -25 0 -25 13 -30 13 -24 -3 3 -8 -1 -14 -8
-14 -7 -1 -46 -9 -87 -18 -49 -10 -94 -14 -130 -10 -38 4 -51 3 -42 -3 8 -6
21 -8 30 -5 9 4 5 -3 -9 -14 -14 -12 -37 -23 -50 -24 -14 -2 -27 -7 -30 -11
-3 -4 -21 -8 -40 -9 -19 -2 -40 -6 -46 -11 -17 -13 -117 -20 -109 -8 4 6 -5
10 -22 10 l-28 -1 30 -17 30 -17 -48 -3 c-26 -2 -45 -7 -42 -12 3 -4 -4 -6
-15 -3 -12 3 -20 0 -20 -6 0 -7 -5 -9 -10 -6 -6 4 -16 2 -23 -3 -7 -5 -42 -17
-78 -27 -61 -16 -68 -16 -97 -1 -19 10 -32 12 -32 6 0 -6 10 -14 22 -19 19 -7
19 -8 4 -14 -10 -4 -22 -4 -27 -1 -18 10 -89 -7 -89 -22 0 -15 -6 -16 -94 -18
-44 -1 -51 -3 -35 -11 17 -10 14 -12 -23 -22 -24 -6 -55 -10 -70 -8 -15 2 -32
-3 -39 -11 -13 -16 -39 -19 -39 -5 0 5 10 12 23 14 15 3 12 5 -12 6 -28 1 -33
-2 -28 -18 3 -14 -2 -21 -20 -26 -13 -3 -28 -3 -33 0 -5 3 -11 1 -14 -4 -4 -5
-22 -5 -47 0 -23 6 -44 7 -47 4 -3 -3 1 -5 9 -5 12 0 11 -2 -1 -10 -11 -7 -5
-8 20 -5 31 5 32 4 11 -5 -16 -7 -34 -7 -55 -1 -35 12 -77 11 -70 -1 3 -4 20
-8 37 -8 22 0 28 -3 18 -9 -7 -5 -22 -6 -32 -4 -10 3 -19 1 -19 -5 0 -16 -62
-24 -72 -10 -6 10 -8 10 -8 1 0 -7 -7 -13 -15 -13 -8 0 -15 -3 -15 -7 0 -7
-19 -11 -73 -13 -9 -1 -15 -5 -13 -9 3 -4 -9 -8 -26 -8 -18 0 -34 -5 -36 -11
-2 -7 -11 -12 -20 -12 -15 0 -15 2 -2 11 11 8 8 9 -14 4 -27 -6 -28 -5 -15 11
13 16 12 16 -9 3 -12 -8 -25 -22 -28 -31 -3 -10 -14 -18 -25 -18 -14 0 -19 7
-20 28 l-1 27 -7 -30 c-5 -26 -10 -30 -36 -28 -25 2 -27 1 -10 -6 23 -11 10
-14 -42 -11 -40 2 -61 -9 -42 -22 10 -6 6 -7 -11 -4 -32 7 -60 9 -85 6 -17 -1
-15 -4 10 -16 l30 -15 -28 4 c-15 2 -27 0 -27 -4 0 -5 -13 -9 -28 -9 -15 0
-33 -5 -39 -11 -7 -7 -30 -12 -53 -12 -27 0 -37 -3 -28 -8 7 -5 9 -9 3 -9 -5
0 -25 9 -43 20 -38 24 -60 26 -38 5 8 -8 22 -15 30 -15 9 0 16 -5 16 -11 0 -7
-10 -9 -27 -5 -15 4 -29 3 -33 -4 -3 -6 -21 -14 -38 -20 -20 -5 -30 -5 -27 1
9 14 -5 11 -21 -6 -9 -8 -24 -15 -35 -15 -28 0 -32 -1 -54 -13 -18 -10 -32
-12 -100 -16 -23 -1 -27 -3 -15 -11 13 -8 13 -10 -1 -10 -24 0 -30 11 -16 28
10 13 9 14 -12 3 -13 -7 -38 -11 -55 -8 -17 3 -25 3 -18 0 6 -2 12 -11 12 -19
0 -17 5 -17 30 -2 10 7 22 9 26 5 12 -11 -3 -20 -38 -21 -18 -1 -36 -5 -40
-10 -4 -6 -22 -10 -42 -10 -19 0 -33 -3 -31 -6 4 -7 -5 -9 -50 -13 -14 -1 -25
-6 -25 -12 0 -5 -5 -3 -10 5 -6 10 -10 11 -10 3 0 -8 -13 -13 -30 -13 -16 0
-30 -5 -30 -12 0 -6 -3 -9 -6 -5 -4 3 -18 0 -33 -7 -38 -19 -84 -29 -76 -17 7
12 -52 8 -63 -4 -4 -4 3 -4 16 -1 13 5 22 3 22 -3 0 -6 -4 -12 -10 -12 -5 -1
-16 -2 -22 -3 -7 -1 -12 -7 -10 -14 3 -14 -14 -16 -23 -2 -3 6 -14 9 -23 9
-15 -1 -15 -2 1 -6 31 -8 18 -18 -73 -55 -49 -20 -87 -32 -84 -27 3 5 -2 9
-10 9 -9 0 -16 -4 -16 -8 0 -23 -77 -41 -158 -38 -45 1 -80 0 -77 -2 3 -3 13
-6 23 -7 10 0 28 -10 40 -21 l20 -19 -48 -27 c-34 -19 -51 -24 -56 -16 -5 7
-2 8 7 3 12 -7 12 -6 0 6 -10 11 -15 11 -18 2 -3 -7 -9 -13 -14 -13 -6 0 -8 4
-4 9 3 6 -4 9 -15 8 -23 -2 -27 -17 -4 -17 8 0 12 -5 8 -11 -4 -8 0 -8 15 0
12 7 21 8 21 2 0 -13 -37 -24 -52 -15 -8 5 -9 2 -5 -9 4 -11 -5 -23 -31 -39
-20 -13 -42 -23 -49 -23 -7 0 -19 -9 -27 -20 -12 -17 -17 -18 -28 -6 -11 12
-10 13 3 8 9 -3 16 0 16 9 0 8 -4 14 -8 14 -5 0 -6 7 -3 15 5 11 0 15 -17 14
-13 0 -18 -3 -11 -6 6 -2 10 -9 6 -14 -3 -5 0 -9 6 -9 6 0 8 -5 5 -10 -4 -6
-10 -8 -14 -6 -4 3 -7 -5 -6 -17 1 -14 8 -21 20 -20 20 1 24 5 -89 -82 -49
-38 -133 -111 -187 -162 -53 -52 -96 -86 -95 -77 1 9 10 23 20 30 10 7 19 18
20 26 3 14 16 47 24 62 3 5 0 6 -6 2 -7 -4 -12 -14 -12 -22 0 -9 -5 -12 -12
-8 -7 4 -10 4 -6 -1 4 -4 3 -14 -3 -22 -6 -7 -8 -13 -3 -13 5 0 -2 -7 -14 -16
-12 -8 -22 -24 -22 -34 0 -23 -16 -35 -26 -19 -4 7 -3 9 4 5 7 -4 9 4 7 24 -2
18 0 28 5 25 6 -4 7 1 3 11 -5 14 -3 16 13 10 14 -5 16 -4 8 4 -7 7 -21 9 -31
6 -15 -5 -19 -15 -18 -42 2 -33 0 -35 -22 -29 -21 5 -22 4 -11 -8 7 -8 19 -12
25 -10 7 3 13 0 13 -6 0 -6 -6 -11 -13 -11 -19 0 -51 -37 -38 -44 5 -4 12 3
16 14 3 11 12 20 20 20 8 0 1 -14 -18 -35 -23 -26 -34 -32 -43 -24 -10 8 -12
5 -8 -15 4 -21 -1 -28 -21 -36 -14 -5 -28 -16 -31 -25 -6 -16 -24 -11 -24 6 0
6 5 7 12 3 7 -4 8 -3 4 5 -13 21 -25 1 -21 -34 4 -26 0 -40 -16 -56 -11 -11
-26 -18 -33 -16 -7 3 -18 -4 -24 -14 -7 -10 -8 -19 -3 -19 5 0 11 6 14 13 2 6
7 10 10 7 7 -7 -5 -29 -55 -101 -34 -48 -44 -51 -39 -11 1 6 -2 12 -7 12 -5 0
-8 -15 -8 -34 0 -19 5 -32 9 -29 5 3 4 -4 -2 -16 -7 -11 -17 -20 -23 -18 -6 1
-13 -4 -16 -12 -3 -9 0 -11 8 -6 9 5 11 4 6 -4 -4 -6 -11 -9 -16 -6 -15 9 -32
-23 -22 -42 8 -14 1 -35 -33 -98 -129 -237 -246 -589 -285 -857 -7 -49 -16
-88 -20 -88 -4 0 -11 -44 -15 -97 -12 -163 -17 -183 -35 -153 -6 8 -10 10 -10
4 0 -6 9 -21 20 -34 17 -19 20 -36 19 -87 -1 -40 -6 -60 -12 -56 -7 4 -7 0 -2
-13 5 -10 9 -46 10 -79 1 -33 5 -67 8 -75 3 -8 8 -44 11 -80 4 -36 8 -87 11
-115 3 -33 2 -43 -4 -30 -6 15 -8 8 -7 -26 0 -40 3 -46 19 -43 11 2 17 -2 14
-9 -2 -7 -10 -12 -17 -12 -7 0 -15 -7 -17 -15 -4 -12 -3 -12 5 -2 21 30 49 -5
32 -39 -10 -17 -8 -24 11 -40 24 -21 19 -40 -6 -19 -10 8 -15 9 -15 1 0 -6 4
-11 9 -11 14 0 53 -68 46 -80 -11 -17 4 -62 17 -54 6 4 8 3 5 -3 -3 -5 1 -22
9 -37 17 -33 17 -39 4 -31 -5 3 -10 1 -10 -4 0 -6 7 -11 16 -11 8 0 12 -4 9
-10 -3 -5 2 -22 12 -37 10 -15 13 -24 6 -20 -6 4 -13 2 -16 -5 -2 -7 -2 -3 0
9 2 15 -4 26 -17 33 -11 6 -20 17 -20 25 0 8 -4 15 -9 15 -13 0 -11 -80 3
-102 11 -19 44 -15 58 6 5 7 8 6 8 -4 0 -12 2 -12 8 -2 6 8 12 0 20 -25 l11
-38 -18 24 -19 25 2 -30 c1 -27 36 -92 36 -67 0 6 -7 18 -15 27 -17 17 -20 30
-4 21 5 -4 22 -32 36 -63 14 -32 30 -65 35 -76 7 -13 7 -16 -1 -12 -6 4 -11 2
-11 -3 0 -6 6 -11 14 -11 8 0 16 -7 20 -15 3 -9 0 -15 -9 -15 -7 0 -17 -5 -21
-12 -5 -7 -2 -10 7 -7 15 5 61 -36 51 -45 -3 -3 -13 4 -23 16 -11 11 -19 16
-19 9 0 -7 -4 -9 -10 -6 -5 3 -10 1 -10 -5 0 -7 7 -9 16 -6 11 4 15 2 11 -7
-4 -11 2 -13 24 -11 20 3 32 -2 38 -15 6 -10 7 -21 4 -25 -3 -3 -1 -6 7 -6 10
0 10 -3 0 -15 -11 -13 -10 -15 1 -10 16 6 64 -71 50 -80 -11 -6 -26 13 -18 22
3 3 1 11 -6 18 -9 9 -16 9 -29 1 -23 -14 -23 -42 0 -51 14 -5 15 -4 4 6 -16
17 -15 26 4 33 12 4 15 2 10 -9 -3 -8 -1 -15 5 -15 6 0 8 -4 4 -9 -3 -6 4 -8
16 -6 31 6 42 -4 27 -23 -11 -13 -10 -15 5 -9 10 4 16 3 12 -2 -3 -5 0 -13 6
-16 5 -4 8 -14 4 -23 -3 -9 -3 -14 0 -10 11 11 74 -58 71 -78 -2 -10 -8 -18
-12 -17 -5 1 -10 -11 -11 -25 l-1 -27 12 24 c11 20 14 21 19 7 5 -12 3 -15 -5
-10 -7 5 -9 2 -5 -9 3 -9 1 -18 -6 -20 -7 -3 -2 -4 10 -4 12 1 19 5 16 10 -3
4 3 15 13 23 11 9 14 13 7 10 -21 -11 -40 39 -20 51 7 3 9 3 6 -1 -3 -3 9 -23
28 -44 49 -53 55 -66 38 -88 -13 -16 -16 -17 -24 -4 -8 12 -10 10 -8 -7 0 -12
5 -19 9 -17 4 3 8 0 8 -5 0 -6 4 -11 10 -11 5 0 7 8 4 18 -5 16 -5 16 9 0 8
-10 18 -18 22 -18 5 0 0 9 -10 20 -26 28 -11 25 18 -4 16 -16 21 -28 15 -34
-12 -12 27 -36 43 -26 8 4 8 0 0 -14 -10 -18 -8 -20 8 -17 17 3 26 -6 32 -33
1 -4 9 -12 17 -18 9 -6 12 -16 7 -23 -6 -10 -3 -11 13 -2 15 8 23 7 36 -8 9
-9 16 -22 16 -27 0 -5 -4 -3 -9 4 -5 8 -7 1 -7 -21 1 -29 4 -33 28 -33 15 0
25 3 22 8 -3 4 1 5 8 3 7 -3 19 -15 26 -26 8 -12 10 -19 5 -16 -5 3 -9 -3 -9
-13 0 -11 2 -17 4 -15 3 2 14 0 26 -6 21 -10 21 -10 1 6 l-20 17 20 -4 c24 -4
67 -46 60 -58 -3 -5 0 -12 6 -16 8 -4 9 -3 5 4 -4 7 -2 12 3 12 6 0 11 -4 11
-9 0 -5 13 -14 30 -20 17 -5 30 -17 30 -25 0 -9 5 -17 10 -17 6 -1 13 -2 18
-3 4 0 21 -11 37 -24 17 -13 24 -21 17 -17 -21 11 -13 -4 9 -16 16 -8 20 -8
14 1 -5 8 0 7 14 -2 12 -7 21 -16 21 -20 0 -5 7 -8 16 -8 8 0 12 -5 9 -10 -4
-6 -9 -8 -13 -6 -4 2 -8 -6 -8 -18 -2 -20 3 -23 35 -21 20 1 34 5 31 11 -3 5
-7 8 -10 7 -3 -1 -12 -4 -21 -8 -10 -4 -16 0 -16 10 0 11 6 13 20 9 12 -4 17
-2 13 4 -4 6 44 -19 107 -56 62 -37 136 -78 165 -91 29 -14 52 -28 52 -33 0
-5 -6 -6 -12 -2 -10 5 -10 3 0 -7 11 -12 14 -12 22 1 8 12 10 12 11 -5 1 -11
1 -24 0 -28 -1 -4 7 -3 18 2 15 9 20 7 24 -9 4 -17 1 -19 -21 -14 -23 5 -25 4
-9 -6 20 -13 52 -6 42 10 -9 15 30 7 50 -10 10 -8 27 -14 38 -15 14 0 23 -8
27 -25 3 -15 19 -32 38 -41 17 -9 29 -19 25 -23 -3 -3 6 -6 20 -6 37 0 34 17
-5 25 -41 9 -68 26 -68 42 0 18 11 16 26 -4 9 -13 26 -18 59 -18 25 0 49 -5
53 -10 4 -6 17 -16 29 -22 27 -16 56 -18 33 -3 -20 13 -4 13 21 0 13 -7 19 -7
19 0 0 10 28 -10 61 -44 10 -11 22 -16 26 -13 3 4 1 7 -5 7 -7 0 -12 7 -12 15
0 8 4 15 9 15 11 0 25 -30 22 -47 -1 -7 3 -13 9 -13 6 0 8 5 5 10 -3 6 -1 10
6 10 8 0 8 4 -2 16 -11 13 -9 14 17 8 35 -8 43 -14 21 -14 -11 0 -14 -5 -10
-17 5 -12 3 -14 -7 -8 -9 6 -11 4 -5 -4 5 -9 13 -7 30 9 13 12 30 20 37 17 8
-4 7 -6 -5 -6 -10 -1 -16 -5 -13 -10 4 -5 0 -12 -6 -14 -9 -4 -10 -6 -1 -6 6
-1 15 4 18 9 3 5 14 10 23 10 15 0 15 -2 2 -11 -12 -9 -11 -9 5 -3 11 4 36 8
55 10 35 3 35 3 5 -5 l-30 -9 38 -1 c20 0 37 3 37 8 0 6 12 6 30 1 37 -11 32
-10 81 -10 24 0 38 -4 34 -10 -3 -6 -2 -10 4 -10 5 0 11 5 13 12 3 7 10 8 17
3 7 -4 64 -9 127 -11 62 -2 139 -6 171 -8 32 -3 52 -1 44 3 -7 5 28 7 79 4 61
-2 89 0 85 7 -6 10 61 16 135 12 27 -1 32 1 20 9 -12 8 -10 9 7 4 12 -3 39 -3
60 1 30 6 34 8 18 14 -14 5 -1 10 46 19 36 6 131 29 210 51 418 117 1112 300
1117 295 3 -3 3 -5 1 -6 -2 0 -13 -3 -24 -5 -11 -3 -26 -6 -34 -6 -8 -1 -4 -8
10 -19 17 -13 19 -19 9 -19 -29 0 -60 12 -54 22 4 6 -2 5 -14 -1 -11 -6 -31
-11 -44 -11 -20 -1 -18 -3 11 -15 43 -19 47 -19 30 2 -13 15 -12 16 6 8 11 -5
49 -9 85 -10 36 0 71 -4 78 -8 7 -5 12 -4 12 2 0 6 -4 11 -10 11 -5 0 -10 7
-10 15 0 18 -2 18 -34 4 -14 -7 -33 -9 -43 -5 -15 6 -13 10 15 23 17 8 29 20
25 26 -4 6 2 8 15 5 12 -4 22 -2 22 4 0 5 10 6 21 3 15 -5 19 -4 15 4 -10 15
14 14 46 -3 20 -11 25 -11 22 -1 -3 8 4 12 23 12 15 -1 41 3 57 8 21 6 27 5
22 -4 -5 -7 3 -11 26 -10 21 1 26 3 13 6 -11 3 -26 10 -33 16 -11 8 -10 12 3
20 12 6 20 4 30 -10 14 -17 14 -17 15 7 0 24 3 25 65 27 49 2 72 7 92 23 18
14 35 19 50 15 13 -3 23 -1 23 5 0 6 4 9 9 6 5 -3 22 1 39 10 17 8 46 16 64
18 18 2 50 11 72 20 21 9 42 13 47 10 5 -3 16 -1 26 4 11 7 21 6 31 -4 7 -8
21 -14 29 -14 12 0 11 5 -7 20 -24 21 -20 26 8 11 25 -12 100 -24 83 -12 -7 5
-11 13 -7 19 3 6 0 13 -6 15 -7 3 -2 6 13 6 14 1 30 6 37 13 7 7 12 8 12 2 0
-5 24 -9 53 -7 28 1 61 2 72 3 11 0 33 5 48 12 21 8 25 13 15 20 -9 6 -6 7 10
3 12 -3 22 -3 22 2 0 4 4 14 9 22 8 12 12 12 26 -3 22 -22 13 -32 -46 -50
l-44 -14 58 0 c38 1 54 4 45 10 -10 8 -10 11 0 15 6 2 12 17 12 33 0 26 15 40
43 40 7 0 6 -4 -3 -10 -9 -6 -10 -10 -3 -10 6 0 15 4 18 10 6 10 27 8 58 -5
10 -4 21 -5 24 -2 3 4 -6 11 -21 16 -14 6 -26 12 -26 14 0 8 65 2 71 -6 10
-14 79 -21 79 -8 0 7 -9 9 -23 6 -15 -4 -32 1 -48 14 -19 16 -21 20 -7 21 9 0
20 -4 23 -10 3 -5 18 -10 33 -9 l27 1 -30 13 -30 13 48 7 c26 4 62 8 80 9 19
2 31 7 29 15 -3 14 69 4 79 -12 4 -5 9 -5 14 3 4 6 13 9 21 6 8 -3 24 -1 36 3
21 8 21 9 -7 10 -55 2 -65 4 -65 14 0 5 11 6 24 3 15 -4 26 -1 28 6 3 7 22 13
46 13 23 0 42 3 42 6 0 12 60 29 77 22 12 -5 14 -3 8 7 -6 10 -4 12 8 7 47
-19 53 -19 32 -2 -20 17 -19 17 7 11 14 -3 28 -2 30 3 2 4 14 11 28 15 l25 7
-25 -15 -25 -15 26 -1 c18 0 28 6 32 20 5 19 54 46 65 36 6 -7 -160 -375 -201
-445 -18 -29 -31 -58 -29 -63 2 -6 -4 -8 -13 -4 -9 3 -21 6 -27 6 -6 0 -8 10
-5 23 4 12 2 28 -2 35 -5 9 -8 -3 -8 -30 1 -44 15 -66 29 -45 6 9 8 9 8 0 0
-7 7 -10 16 -6 14 5 15 3 6 -14 -9 -15 -8 -20 3 -20 8 0 12 4 9 9 -3 4 7 8 21
8 14 0 24 -3 22 -7 -3 -5 5 -8 17 -8 13 0 23 5 23 11 0 6 -10 9 -21 7 -18 -4
-19 -3 -6 7 12 9 9 10 -15 7 -16 -2 -24 -2 -16 1 11 3 11 6 2 12 -9 5 -8 9 4
13 9 4 13 3 10 -3 -8 -13 8 -13 22 1 14 14 103 40 103 30 0 -4 15 -8 33 -8 17
0 26 2 20 5 -7 2 -13 8 -13 13 0 4 7 6 15 3 8 -4 15 -1 15 6 0 6 4 9 9 5 5 -3
12 -1 15 3 3 5 18 7 33 5 22 -4 25 -2 13 6 -13 9 -13 11 1 11 9 0 20 -11 23
-24 3 -13 16 -26 28 -29 32 -9 35 0 4 14 -25 12 -37 49 -15 49 5 0 7 -5 4 -10
-3 -6 -2 -10 3 -10 6 0 13 7 16 16 3 8 10 13 15 9 5 -3 13 0 17 6 4 6 19 9 38
5 22 -4 27 -3 16 4 -13 9 -13 10 0 10 9 0 21 -5 27 -11 8 -8 13 -7 18 2 6 8 4
10 -6 4 -8 -5 -11 -4 -6 0 11 13 128 16 146 4 13 -8 11 -9 -6 -4 -13 3 -30 2
-39 -3 -12 -6 -7 -9 20 -10 19 -1 38 3 41 8 3 6 16 11 28 11 12 1 -9 7 -48 14
-54 10 -62 13 -32 14 20 0 37 5 37 9 0 5 6 9 13 10 36 3 65 10 84 20 24 13 45
16 26 4 -8 -5 1 -8 22 -9 19 -1 35 3 35 8 0 4 -8 6 -17 3 -16 -5 -16 -4 0 6
26 16 77 30 77 21 0 -4 21 -8 48 -8 33 -1 41 2 27 7 -13 6 -15 9 -5 9 12 1 13
3 1 10 -9 6 3 12 37 21 28 6 56 8 63 4 8 -5 9 -3 4 6 -8 13 1 12 50 -5 16 -5
17 -5 5 4 -8 6 -10 11 -5 11 6 0 16 -5 23 -12 9 -9 12 -9 12 1 0 10 3 11 13 2
16 -12 58 12 44 25 -4 5 -12 3 -16 -4 -6 -9 -14 -10 -32 -2 -22 10 -23 10 -2
6 13 -2 26 0 29 6 3 5 11 7 18 5 6 -3 20 1 30 8 10 8 24 11 32 8 8 -3 14 -1
14 4 0 10 7 12 58 16 17 1 32 6 32 11 0 5 6 3 14 -3 11 -10 20 -10 37 -1 12 7
24 8 28 3 3 -4 24 -8 46 -7 63 1 73 4 48 14 -13 5 -35 5 -53 0 -27 -8 -31 -7
-28 8 3 12 12 16 31 15 15 -1 25 2 23 6 -3 4 2 8 10 8 9 0 13 -6 9 -16 -5 -13
-4 -14 6 -3 7 6 22 12 34 11 20 0 20 0 0 -10 -19 -8 -19 -9 -1 -6 26 3 23 21
-6 28 -20 5 -19 6 12 13 19 4 52 8 73 8 24 1 33 4 25 10 -15 9 -13 9 62 13 66
4 66 4 50 16 -11 8 -9 8 10 2 43 -13 79 -7 100 17 11 13 23 20 26 17 4 -3 13
1 21 9 8 8 19 11 25 8 17 -11 59 -13 52 -3 -3 5 2 9 11 9 9 0 14 -4 11 -9 -3
-4 6 -6 19 -3 14 2 25 8 25 12 0 5 -10 6 -22 3 -22 -4 -22 -4 -4 11 16 13 22
13 35 3 12 -10 13 -9 7 1 -6 10 -2 13 15 10 16 -2 23 1 21 11 -2 9 3 11 14 7
10 -4 21 -2 24 5 4 6 30 12 58 12 27 1 45 5 39 9 -8 5 -7 8 3 8 9 0 21 -5 27
-11 8 -8 17 -8 31 0 26 14 35 14 27 1 -3 -5 -2 -10 4 -10 5 0 13 4 16 10 3 5
1 10 -4 10 -6 0 -11 5 -11 10 0 6 6 10 13 10 6 0 25 7 41 15 16 8 40 12 55 9
20 -4 23 -3 11 5 -13 9 -12 11 5 12 47 3 62 7 82 18 28 14 36 14 27 -1 -6 -10
-4 -10 7 0 7 6 24 12 37 12 14 0 21 4 16 11 -8 13 33 3 54 -13 8 -8 12 -6 12
6 0 9 -8 16 -17 17 -10 1 -2 5 17 9 21 5 36 5 38 -1 2 -5 8 -9 14 -9 6 0 8 6
5 13 -8 20 72 39 114 27 19 -6 34 -10 35 -10 0 0 1 7 1 15 0 10 -6 14 -16 10
-11 -4 -13 -3 -6 4 16 16 55 2 48 -17 -4 -14 -3 -15 5 -2 8 10 7 18 -1 28 -8
11 -8 13 4 11 7 -1 26 1 40 5 14 4 32 8 40 9 8 2 20 6 27 11 21 13 29 -4 9
-18 -23 -18 -22 -29 3 -16 11 6 20 20 20 32 0 15 3 18 13 10 7 -5 21 -6 32 -1
11 4 14 8 6 8 -8 1 -12 3 -9 6 3 3 17 1 32 -5 18 -6 25 -6 21 0 -3 6 1 10 10
10 9 0 14 4 11 8 -5 9 -1 10 44 15 14 1 35 8 48 15 12 7 32 10 42 7 12 -4 20
-2 20 4 0 6 9 11 20 11 10 0 30 5 44 11 19 9 29 9 40 0 11 -9 20 -9 34 -2 11
6 23 7 27 3 5 -4 5 -2 1 5 -9 16 29 36 53 28 10 -3 24 1 31 10 18 22 33 18 20
-5 -6 -11 -20 -20 -30 -20 -11 0 -20 -4 -20 -10 0 -5 12 -10 26 -10 14 0 23 4
19 10 -3 5 1 10 9 10 10 0 13 6 10 15 -4 10 0 15 14 15 11 0 23 7 26 16 3 9
12 14 20 11 7 -3 19 0 25 6 8 8 11 7 11 -4 1 -10 3 -10 11 3 13 23 81 26 73 4
-4 -10 1 -14 15 -13 15 1 17 4 9 15 -8 9 -8 16 0 24 9 9 12 8 12 -3 1 -11 4
-10 14 4 12 15 17 16 47 3 38 -16 79 -6 79 19 0 11 -5 10 -22 -7 -13 -13 -23
-17 -26 -10 -2 6 -9 9 -17 6 -7 -3 -16 1 -21 8 -4 7 -4 10 1 6 4 -4 17 -3 28
3 14 8 18 8 13 0 -10 -16 5 -13 24 4 10 9 37 18 60 21 24 3 59 12 78 20 40 16
54 18 32 4 -10 -6 -11 -10 -2 -10 6 0 12 -4 12 -10 0 -5 -8 -7 -17 -4 -15 5
-15 4 -3 -4 17 -13 30 -6 30 15 0 13 3 13 15 3 10 -9 15 -9 15 -1 0 6 10 11
23 12 21 0 21 1 2 9 -17 7 -17 9 -2 9 9 1 17 5 17 10 0 8 93 27 110 24 3 -1
14 -5 25 -8 16 -6 17 -5 5 4 -8 6 -10 11 -5 11 6 0 16 -5 23 -12 9 -9 18 -8
39 2 20 9 24 14 14 18 -8 3 -17 0 -19 -7 -3 -9 -7 -9 -19 0 -12 11 -7 15 29
24 24 6 54 15 67 19 17 6 22 5 16 -4 -4 -7 3 -5 16 3 13 9 38 19 54 22 61 12
96 15 92 8 -3 -5 6 -9 20 -10 18 -1 22 2 12 7 -11 8 -11 10 1 14 40 12 42 16
6 11 -22 -2 -35 -1 -30 4 14 12 93 33 103 26 5 -3 11 0 13 7 3 7 10 8 17 4 11
-7 11 -10 0 -17 -11 -7 -10 -9 3 -9 9 0 22 8 27 17 6 10 11 14 11 9 0 -5 6 -3
14 3 7 6 30 9 49 7 29 -4 35 -2 30 11 -5 14 0 15 31 10 27 -4 39 -2 43 9 3 7
18 14 33 14 16 0 32 5 35 10 4 6 10 8 15 5 5 -3 12 -1 15 5 4 6 15 8 25 5 10
-3 21 -2 24 4 3 5 17 8 31 6 14 -1 25 2 25 6 0 5 8 9 18 9 14 0 15 -2 2 -10
-12 -7 -10 -9 7 -7 12 0 19 5 17 9 -8 12 11 9 24 -4 9 -9 12 -8 12 4 0 9 -6
19 -12 22 -7 3 -2 3 11 0 16 -4 21 -2 17 5 -5 7 3 10 23 7 17 -2 31 1 31 6 0
6 7 8 15 4 8 -3 15 -1 15 5 0 5 13 14 28 20 18 6 28 17 29 32 2 22 2 22 -11
-2 -9 -15 -16 -20 -20 -12 -4 6 -2 11 4 11 7 0 10 7 6 15 -8 22 13 62 36 68
15 4 18 2 13 -11 -5 -13 -3 -14 5 -6 9 9 9 17 1 33 -9 16 -8 22 8 30 10 6 21
7 25 3 4 -3 4 1 1 10 -4 9 -2 19 4 23 6 3 11 12 11 18 -1 7 -12 -1 -27 -18
l-26 -30 20 35 c18 33 35 80 37 105 1 6 18 49 39 96 45 100 57 109 185 145 98
27 106 28 97 14 -4 -6 1 -7 11 -3 14 5 15 3 5 -15 -6 -11 -24 -23 -41 -26 -16
-3 -43 -9 -60 -12 -16 -3 -33 -10 -37 -16 -4 -8 0 -9 13 -3 10 4 38 9 61 10
26 2 50 10 64 24 21 19 22 24 10 43 -12 19 -11 20 11 14 12 -4 32 -9 43 -12
16 -4 15 -2 -2 5 -33 15 -29 17 25 15 65 -2 69 -3 53 -13 -10 -6 -2 -9 23 -8
l38 1 -49 23 c-26 13 -38 21 -25 19 12 -2 22 0 22 5 0 5 4 9 10 9 5 0 9 -3 7
-7 -2 -9 7 -13 31 -13 14 0 15 2 2 10 -8 5 -11 12 -7 16 4 4 13 2 19 -4 17
-17 46 -15 50 5 2 13 17 16 80 17 42 1 79 4 83 8 4 3 20 2 36 -2 20 -6 27 -5
23 2 -5 8 9 9 47 5 42 -5 48 -4 29 4 -27 11 -132 9 -140 -3 -3 -4 -17 -4 -30
-1 -24 7 -23 7 10 16 19 5 67 10 105 11 61 1 70 3 67 18 -3 18 11 23 56 19 12
-1 22 3 22 9 0 6 4 9 9 6 4 -3 35 -8 67 -11 57 -5 58 -5 30 10 -15 8 -40 13
-55 10 l-26 -5 24 10 c17 7 34 8 54 0 41 -14 60 -13 54 4 -4 10 2 13 21 12 15
-1 32 -5 38 -8 15 -10 24 0 17 18 -3 9 -16 12 -36 9 l-32 -5 28 9 c16 6 35 7
43 4 8 -3 14 0 14 6 0 6 11 8 29 5 20 -4 30 -2 34 10 5 12 14 15 34 10 23 -4
25 -3 13 6 -12 9 -9 11 17 6 36 -6 93 8 105 26 6 10 8 8 8 -4 0 -9 -8 -22 -17
-27 -10 -6 -13 -11 -6 -11 6 0 24 13 40 30 31 33 53 39 53 14 0 -21 -28 -43
-55 -44 -17 0 -17 -2 -5 -10 20 -13 53 -13 45 0 -3 6 1 10 9 10 12 0 16 10 16
35 0 32 3 35 43 46 23 6 52 15 65 20 35 14 51 10 17 -5 -26 -11 -27 -13 -10
-19 10 -4 21 -3 24 2 10 16 57 30 80 24 16 -4 21 -1 21 15 0 20 41 39 60 27 6
-4 10 -3 10 2 0 4 19 7 43 6 39 -1 43 1 41 20 -4 33 -5 34 -14 10 -5 -13 -15
-23 -22 -23 -9 0 -9 3 -2 8 5 4 10 16 10 27 1 11 157 513 348 1115 191 602
390 1230 443 1395 52 165 117 369 144 453 27 84 49 155 49 157 0 1 -226 209
-502 461 -479 438 -1003 916 -1613 1474 -153 140 -288 262 -299 271 -20 15
-69 3 -761 -183z m481 -529 c21 -20 27 -21 66 -10 41 10 44 9 66 -17 26 -31
52 -111 52 -158 0 -19 -27 -87 -71 -174 -38 -78 -74 -152 -79 -166 -8 -19 -17
-24 -45 -24 -49 0 -87 22 -130 74 l-36 44 15 49 c17 57 27 113 20 113 -15 0
-81 -34 -121 -62 -109 -78 -230 -287 -317 -548 -108 -324 -78 -633 74 -745
138 -102 384 100 397 328 3 40 0 85 -6 101 -14 34 -31 32 -134 -20 -37 -19
-72 -34 -78 -34 -5 0 -9 19 -9 43 0 186 183 340 481 405 155 34 166 34 189 5
27 -34 69 -123 72 -152 3 -22 -4 -25 -82 -46 -47 -13 -106 -32 -131 -43 l-46
-20 -7 -109 c-27 -412 -77 -527 -279 -630 -174 -88 -459 -87 -588 3 -162 112
-224 395 -165 746 79 457 253 740 600 972 67 45 81 51 196 80 73 19 71 19 96
-5z m-859 -309 c-3 -25 -44 -337 -92 -695 -47 -357 -95 -728 -107 -823 -25
-200 -15 -187 -149 -187 -54 0 -83 5 -102 18 -69 45 -153 257 -343 861 -21 66
-39 115 -41 110 -1 -5 -34 -272 -73 -594 -84 -699 -77 -650 -103 -650 -43 0
-183 33 -197 46 -25 24 -19 375 9 588 42 319 162 938 195 1013 20 44 73 81
157 109 39 13 76 24 83 24 6 0 19 -21 28 -47 246 -701 323 -912 328 -901 10
18 17 69 45 313 46 398 73 557 126 724 45 142 39 136 149 136 l92 0 -5 -45z
m-3477 -191 c0 -6 -9 -9 -20 -6 -11 3 -20 1 -20 -4 0 -5 -7 -9 -16 -9 -14 0
-14 3 -4 15 14 17 60 20 60 4z m-305 -79 c3 -5 -1 -10 -10 -10 -9 0 -13 5 -10
10 3 6 8 10 10 10 2 0 7 -4 10 -10z m2495 -29 c0 -10 -7 -56 -16 -102 -9 -46
-78 -447 -153 -892 -76 -444 -141 -810 -144 -814 -4 -3 -32 -6 -62 -6 -48 0
-63 5 -110 38 -48 32 -55 42 -55 70 0 52 38 381 60 524 11 72 25 166 31 208
32 240 175 778 240 906 11 21 27 37 37 37 9 0 49 11 87 25 85 30 85 30 85 6z
m-2563 3 c-3 -3 -12 -4 -19 -1 -8 3 -5 6 6 6 11 1 17 -2 13 -5z m-117 -24 c0
-5 -4 -10 -10 -10 -5 0 -10 5 -10 10 0 6 5 10 10 10 6 0 10 -4 10 -10z m-30
-10 c0 -5 -7 -10 -15 -10 -8 0 -15 5 -15 10 0 6 7 10 15 10 8 0 15 -4 15 -10z
m-153 -46 c-3 -3 -12 -4 -19 -1 -8 3 -5 6 6 6 11 1 17 -2 13 -5z m2316 -11 c3
-5 -12 -145 -33 -313 -21 -168 -69 -563 -106 -879 l-69 -573 -25 -10 c-31 -12
-229 -6 -251 7 -14 9 -5 69 87 575 57 311 103 572 103 580 0 21 3 28 -284
-695 -142 -357 -261 -654 -265 -658 -4 -5 -29 -5 -55 -2 -55 9 -114 50 -163
114 -33 44 -33 45 -28 130 14 222 27 782 19 846 l-8 70 -173 -685 c-96 -377
-177 -688 -181 -693 -17 -17 -156 50 -201 97 -21 23 -22 31 -16 93 11 108 41
240 137 601 108 405 137 500 242 791 l80 223 41 19 c23 10 52 19 66 19 14 0
48 11 75 25 60 30 81 31 94 6 29 -53 34 -123 40 -556 l6 -450 42 85 c23 47 57
131 77 187 19 56 45 126 57 155 47 113 363 754 382 776 12 12 48 31 81 41 34
11 90 33 126 50 65 31 95 38 103 24z m-2428 -13 c3 -5 -1 -10 -10 -10 -9 0
-13 5 -10 10 3 6 8 10 10 10 2 0 7 -4 10 -10z m-80 -20 c3 -5 1 -10 -4 -10 -6
0 -11 5 -11 10 0 6 2 10 4 10 3 0 8 -4 11 -10z m-70 -20 c3 -5 -1 -10 -10 -10
-9 0 -13 5 -10 10 3 6 8 10 10 10 2 0 7 -4 10 -10z m-225 -60 c0 -5 -5 -10
-11 -10 -5 0 -7 5 -4 10 3 6 8 10 11 10 2 0 4 -4 4 -10z m-593 -157 c-11 -11
-69 -14 -62 -3 3 6 20 10 37 10 17 0 28 -3 25 -7z m-487 -133 c0 -5 -2 -10 -4
-10 -3 0 -8 5 -11 10 -3 6 -1 10 4 10 6 0 11 -4 11 -10z m1779 -251 c173 -59
311 -219 357 -415 13 -54 15 -100 11 -214 -17 -423 -231 -878 -497 -1055 -94
-63 -165 -86 -275 -92 -305 -16 -485 155 -526 501 -31 267 73 634 259 916 120
182 306 335 447 370 61 16 160 10 224 -11z m-3399 -179 c-34 -11 -60 -11 -35
0 11 5 29 8 40 8 16 0 15 -2 -5 -8z m2443 -39 c51 -22 57 -35 57 -137 0 -84
-25 -171 -73 -259 -19 -33 -53 -95 -76 -137 -43 -78 -43 -78 -84 -78 -23 0
-59 5 -79 11 -36 9 -38 12 -38 53 0 24 9 85 20 137 20 98 25 159 13 159 -23 0
-129 -100 -173 -162 -98 -138 -162 -293 -220 -532 -86 -348 -57 -568 85 -652
72 -42 131 -29 197 44 55 61 106 160 189 367 78 194 101 228 115 168 3 -15 15
-57 27 -92 19 -60 20 -72 9 -175 -19 -187 -70 -341 -147 -446 -27 -37 -53 -58
-103 -82 -64 -32 -72 -33 -182 -33 -162 0 -251 31 -353 125 -67 61 -107 127
-139 230 -20 65 -23 95 -23 230 0 136 4 168 28 260 63 242 195 531 324 712 60
84 165 192 226 234 81 54 121 66 222 62 51 -1 97 1 101 5 11 11 29 9 77 -12z
m6264 -260 c-4 -25 -56 -424 -116 -886 -61 -462 -127 -966 -147 -1120 -20
-154 -42 -283 -48 -287 -19 -12 -137 -21 -204 -15 -35 4 -78 15 -95 25 -82 47
-220 398 -469 1190 -22 72 -42 131 -44 129 -1 -1 -23 -171 -48 -377 -121 -988
-156 -1281 -156 -1295 0 -19 -56 -20 -130 -1 -30 7 -76 17 -102 20 -26 4 -54
14 -62 21 -21 22 -29 102 -28 295 1 243 33 534 108 970 34 198 168 842 184
885 13 35 60 84 104 110 54 32 226 89 236 78 4 -4 21 -48 38 -98 26 -77 105
-301 373 -1060 28 -76 51 -141 53 -143 9 -9 28 120 66 445 56 475 91 696 141
883 19 72 73 228 90 261 6 13 29 15 135 15 l126 0 -5 -45z m-11373 -468 c-20
-14 -36 -13 -41 3 -2 6 11 11 28 11 29 0 30 -1 13 -14z m9045 -103 c262 -49
485 -274 562 -565 25 -94 29 -323 10 -465 -64 -457 -266 -898 -528 -1151 -211
-203 -418 -271 -688 -224 -255 45 -425 216 -497 500 -20 80 -23 114 -23 300 1
191 3 221 29 338 106 493 370 930 691 1147 163 110 301 147 444 120z m-8456
-237 c8 -16 33 -100 57 -188 23 -88 51 -176 61 -196 23 -47 58 -69 109 -69 22
0 40 -3 40 -6 0 -6 319 -1197 376 -1404 31 -113 32 -126 18 -135 -9 -5 -42
-27 -73 -47 -36 -25 -68 -38 -89 -38 -17 0 -303 32 -635 71 -331 38 -617 68
-636 65 -102 -16 -131 -162 -43 -222 38 -26 -4 -20 682 -99 316 -37 598 -73
626 -81 30 -8 72 -31 100 -54 55 -45 105 -63 167 -58 l42 3 21 -80 c103 -386
319 -1194 334 -1247 l19 -68 -34 -16 c-45 -21 -69 -72 -61 -129 4 -23 26 -113
50 -201 24 -87 41 -166 38 -176 -11 -43 -161 -63 -472 -63 -211 1 -261 4 -365
23 -453 86 -798 250 -1134 538 -254 218 -437 467 -592 805 -71 154 -79 188
-55 208 7 6 85 31 172 55 184 49 218 65 240 108 37 71 13 147 -54 175 -46 19
-77 15 -264 -37 -80 -22 -153 -40 -162 -40 -31 0 -45 44 -62 200 -19 182 -14
444 11 610 112 725 580 1374 1226 1701 129 65 260 118 296 118 26 1 35 -5 46
-26z m6682 -258 c235 -60 432 -258 515 -520 29 -88 39 -347 20 -489 -78 -594
-388 -1144 -745 -1323 -112 -57 -187 -74 -320 -74 -371 1 -585 188 -661 578
-23 114 -23 341 0 478 64 385 234 757 468 1025 139 159 339 297 478 330 58 13
182 11 245 -5z m-1414 -507 c84 -28 206 -156 193 -202 -37 -134 -171 -283
-316 -353 -48 -24 -92 -43 -98 -43 -17 0 -97 57 -103 74 -7 18 2 54 22 85 14
23 13 22 -45 -7 -187 -95 -333 -192 -410 -274 -64 -68 -86 -108 -88 -166 -2
-72 -1 -73 344 -65 329 7 358 4 473 -54 90 -45 144 -96 179 -168 24 -52 28
-72 28 -151 0 -175 -71 -382 -180 -526 -106 -140 -303 -318 -480 -436 -286
-189 -534 -259 -719 -203 -99 30 -171 98 -196 185 -53 184 74 452 277 585 53
35 63 38 89 29 16 -6 41 -26 56 -45 l26 -34 -35 -37 c-83 -87 -128 -184 -128
-272 0 -78 89 -66 297 38 125 64 370 232 444 306 106 105 167 255 151 366 -8
59 -27 63 -306 72 -279 8 -355 17 -465 54 -153 51 -231 145 -239 287 -5 80 8
136 50 222 111 229 438 489 828 661 188 83 271 100 351 72z m6579 -1287 c0 -5
-9 -7 -20 -4 -11 3 -20 7 -20 9 0 2 9 4 20 4 11 0 20 -4 20 -9z m-663 -177
c-3 -3 -12 -4 -19 -1 -8 3 -5 6 6 6 11 1 17 -2 13 -5z m-227 -64 c0 -5 -9 -10
-20 -10 -11 0 -20 5 -20 10 0 6 9 10 20 10 11 0 20 -4 20 -10z m-315 -70 c3
-5 -1 -10 -10 -10 -9 0 -13 5 -10 10 3 6 8 10 10 10 2 0 7 -4 10 -10z m-1071
-68 c49 -34 84 -99 98 -184 21 -120 -32 -248 -124 -302 -46 -27 -289 -98 -299
-87 -9 8 -34 539 -26 547 3 3 54 19 114 35 128 34 180 32 237 -9z m923 32 c-3
-3 -12 -4 -19 -1 -8 3 -5 6 6 6 11 1 17 -2 13 -5z m-1382 -134 l0 -44 -85 -24
c-47 -12 -109 -29 -137 -38 l-53 -15 0 -54 c0 -29 4 -57 10 -60 8 -5 136 26
253 61 15 5 17 -2 17 -44 l0 -49 -132 -35 -133 -35 0 -66 c0 -36 3 -69 7 -73
4 -4 71 10 149 30 77 21 142 36 144 34 1 -2 5 -22 8 -45 l5 -43 -41 -11 c-23
-6 -114 -30 -202 -54 -88 -24 -163 -40 -166 -37 -5 5 -32 443 -34 537 0 10
360 115 380 110 6 -1 10 -21 10 -45z m-486 -327 c6 -131 14 -255 17 -275 5
-35 4 -37 -33 -47 -21 -6 -46 -11 -55 -11 -11 0 -59 55 -124 143 -59 78 -111
147 -116 152 -7 6 -8 -15 -4 -60 3 -38 8 -122 12 -186 l6 -115 -49 -11 c-26
-6 -50 -10 -52 -8 -3 4 -30 435 -31 506 l0 45 51 13 c27 7 51 12 53 10 2 -2
54 -71 116 -154 l112 -150 -7 165 c-3 91 -8 172 -11 181 -4 16 37 36 82 38 20
1 21 -6 33 -236z m-539 75 c0 -13 5 -95 10 -183 6 -88 8 -184 4 -213 -14 -115
-103 -191 -234 -199 -81 -5 -125 15 -158 75 -19 35 -25 64 -32 184 -5 79 -10
167 -10 196 0 57 4 60 76 76 l30 7 11 -201 c9 -168 14 -204 28 -220 24 -26 90
-26 131 -1 51 31 57 65 45 260 -15 237 -17 217 27 229 60 16 72 14 72 -10z
m-492 -155 l-3 -46 -63 -17 c-35 -10 -67 -22 -71 -26 -4 -5 -2 -108 5 -229 7
-121 10 -223 6 -226 -11 -9 -94 -31 -99 -26 -2 3 -9 97 -14 208 -6 112 -12
214 -15 226 l-4 21 -72 -19 c-40 -10 -73 -17 -74 -16 -1 1 -4 22 -5 46 l-3 44
189 52 c105 29 198 53 208 54 15 1 18 -6 15 -46z m-9528 -156 c0 -5 -6 -7 -14
-4 -8 3 -17 1 -19 -6 -2 -7 -4 0 -3 14 1 22 4 24 19 15 9 -6 17 -15 17 -19z
m8900 27 c0 -3 -32 -87 -71 -187 l-71 -182 2 -111 1 -111 -45 -12 c-25 -6 -50
-11 -55 -11 -7 0 -11 33 -11 89 0 49 -4 101 -9 114 -5 13 -57 82 -115 153 -58
71 -106 132 -106 135 0 7 79 29 102 29 8 0 45 -40 83 -89 39 -49 73 -90 76
-90 4 -1 25 52 49 117 23 64 47 122 54 129 18 19 116 42 116 27z m-8913 -66
c-3 -8 -6 -5 -6 6 -1 11 2 17 5 13 3 -3 4 -12 1 -19z m8389 -340 c60 -133 110
-245 112 -249 3 -8 -61 -29 -89 -29 -10 0 -24 19 -37 50 -12 28 -27 50 -35 50
-7 0 -36 -6 -63 -14 -27 -8 -68 -19 -91 -25 -39 -11 -42 -14 -53 -64 -7 -28
-16 -59 -21 -68 -8 -15 -96 -45 -106 -36 -5 5 145 588 153 596 7 7 83 29 105
30 12 1 46 -66 125 -241z m-391 132 c4 -21 4 -43 1 -48 -3 -5 -38 -18 -77 -28
l-72 -19 7 -130 c3 -71 9 -176 13 -231 l6 -101 -52 -13 c-29 -7 -54 -11 -56
-9 -2 2 -9 103 -15 224 -7 121 -14 222 -16 224 -2 2 -32 -4 -68 -13 -36 -9
-70 -16 -76 -16 -5 0 -10 20 -10 45 0 39 3 45 25 51 14 3 103 28 198 54 94 26
175 48 179 49 3 0 9 -17 13 -39z m-585 -140 c36 -10 92 -60 103 -92 5 -13 -5
-20 -44 -33 -50 -17 -51 -17 -66 5 -22 32 -58 42 -104 30 -44 -12 -74 -49 -64
-78 7 -25 39 -37 144 -56 117 -21 155 -51 168 -130 14 -86 -52 -169 -160 -201
-105 -31 -189 -12 -234 55 -35 50 -30 66 24 84 45 16 62 11 63 -16 0 -19 36
-38 71 -38 80 0 138 44 125 95 -7 26 -35 38 -136 55 -90 16 -126 33 -150 72
-25 42 -27 119 -2 160 41 70 170 114 262 88z m891 -490 c-25 -21 -51 -26 -51
-10 0 6 9 10 19 10 11 0 23 5 26 10 3 6 12 10 18 10 7 -1 1 -10 -12 -20z
m-7744 -6 c-3 -3 -12 -4 -19 -1 -8 3 -5 6 6 6 11 1 17 -2 13 -5z m162 -197 c0
-9 -2 -8 -6 1 -2 6 -10 9 -15 6 -7 -4 -8 -2 -4 5 9 13 26 5 25 -12z m4966 -65
c-3 -3 -18 -7 -33 -9 -15 -2 -41 -6 -58 -9 -20 -4 -34 -1 -39 6 -6 10 -1 11
19 6 20 -5 26 -3 21 5 -5 8 -1 9 14 4 11 -3 21 -2 21 3 0 5 14 7 30 4 17 -2
28 -7 25 -10z m-250 -52 c-3 -5 -13 -10 -21 -10 -8 0 -14 5 -14 10 0 6 9 10
21 10 11 0 17 -4 14 -10z m-458 -116 c-3 -3 -12 -4 -19 -1 -8 3 -5 6 6 6 11 1
17 -2 13 -5z m-242 -63 c-8 -15 -32 -14 -41 1 -5 8 -2 9 9 5 9 -3 19 -2 23 4
3 6 8 8 11 5 3 -2 2 -9 -2 -15z m-3011 -296 c3 3 2 0 -3 -6 -10 -12 -31 -4
-31 13 0 7 4 7 13 -1 8 -6 17 -9 21 -6z"/>
<path d="M9292 8113 c-18 -9 -67 -46 -109 -82 -226 -195 -344 -487 -330 -811
9 -200 57 -373 110 -398 38 -19 121 0 182 40 133 88 263 357 328 678 32 157
51 345 42 424 -6 52 -12 67 -43 99 -65 68 -116 82 -180 50z"/>
<path d="M12305 6968 c-100 -52 -295 -239 -373 -358 -101 -152 -174 -340 -208
-530 -23 -127 -23 -379 0 -515 25 -150 71 -292 107 -328 29 -29 33 -30 97 -24
87 9 170 50 241 119 238 235 431 841 431 1356 l0 157 -62 59 c-96 89 -154 106
-233 64z"/>
<path d="M10495 6484 c-55 -28 -172 -124 -242 -197 -175 -184 -291 -418 -339
-682 -25 -136 -25 -401 0 -540 23 -128 71 -278 99 -311 19 -22 31 -26 76 -26
69 1 106 9 161 37 229 117 437 571 521 1140 7 50 14 172 14 272 l0 182 -30 32
c-16 17 -52 49 -78 70 -43 34 -55 39 -100 39 -29 0 -65 -7 -82 -16z"/>
<path d="M13360 4547 l-45 -12 4 -130 c2 -72 6 -156 10 -187 l6 -56 58 18 c31
10 69 26 83 35 83 54 85 271 3 329 -27 18 -56 19 -119 3z"/>
<path d="M10250 3639 c-6 -24 -21 -75 -32 -112 -11 -37 -18 -70 -16 -72 4 -4
137 31 144 37 3 4 -70 175 -78 184 -4 3 -12 -14 -18 -37z"/>
<path d="M14320 10390 c0 -5 5 -10 11 -10 5 0 7 5 4 10 -3 6 -8 10 -11 10 -2
0 -4 -4 -4 -10z"/>
<path d="M14053 10365 c-18 -5 -33 -15 -33 -22 0 -16 5 -16 30 -3 21 11 53 3
44 -11 -3 -5 2 -9 10 -9 24 0 19 19 -6 30 -18 8 -13 9 20 4 25 -3 42 -2 42 4
0 14 -69 19 -107 7z"/>
<path d="M14184 10365 c11 -8 27 -15 35 -15 9 0 3 7 -13 15 -36 19 -47 19 -22
0z"/>
<path d="M14256 10371 c-3 -4 6 -6 19 -3 14 2 25 6 25 8 0 8 -39 4 -44 -5z"/>
<path d="M14992 10368 c2 -6 14 -18 26 -26 20 -13 22 -13 22 2 0 10 -4 14 -10
11 -5 -3 -15 -3 -22 1 -8 5 -6 10 8 15 17 7 17 8 -4 8 -14 1 -22 -4 -20 -11z"/>
<path d="M14000 10321 c0 -25 6 -27 13 -6 4 8 2 17 -3 20 -6 4 -10 -3 -10 -14z"/>
<path d="M13805 10290 c-8 -13 5 -13 25 0 13 8 13 10 -2 10 -9 0 -20 -4 -23
-10z"/>
<path d="M13948 10293 c6 -2 18 -2 25 0 6 3 1 5 -13 5 -14 0 -19 -2 -12 -5z"/>
<path d="M15085 10290 c-3 -6 1 -7 9 -4 18 7 21 14 7 14 -6 0 -13 -4 -16 -10z"/>
<path d="M15180 10289 c0 -5 5 -7 10 -4 6 3 10 8 10 11 0 2 -4 4 -10 4 -5 0
-10 -5 -10 -11z"/>
<path d="M13760 10286 c0 -2 7 -6 15 -10 8 -3 15 -1 15 4 0 6 -7 10 -15 10 -8
0 -15 -2 -15 -4z"/>
<path d="M13854 10281 c8 -13 -48 -31 -76 -25 -21 5 -21 4 -4 -7 15 -9 31 -8
78 7 46 14 56 20 42 25 -27 11 -46 11 -40 0z"/>
<path d="M15111 10276 c-10 -12 -8 -13 8 -9 25 6 54 -15 47 -33 -3 -7 2 -15
10 -18 9 -3 13 -10 10 -15 -3 -5 10 -21 29 -35 27 -21 35 -24 35 -11 0 9 7 18
15 21 8 4 12 10 9 15 -8 14 -24 10 -24 -6 0 -8 -4 -15 -8 -15 -14 0 -43 36
-35 43 3 4 1 7 -5 7 -7 0 -12 8 -12 18 0 22 -30 52 -52 52 -9 0 -21 -6 -27
-14z"/>
<path d="M13468 10213 c7 -3 16 -2 19 1 4 3 -2 6 -13 5 -11 0 -14 -3 -6 -6z"/>
<path d="M13520 10211 c0 -6 -8 -11 -17 -12 -12 0 -13 -2 -5 -6 7 -3 19 1 27
7 10 8 15 9 15 2 0 -19 35 -22 80 -8 25 8 37 14 28 15 -9 1 -29 -4 -44 -9 -16
-6 -30 -7 -33 -2 -9 15 -51 25 -51 13z"/>
<path d="M13688 10213 c7 -3 16 -2 19 1 4 3 -2 6 -13 5 -11 0 -14 -3 -6 -6z"/>
<path d="M15235 10210 c-7 -12 2 -12 30 0 19 8 19 9 -2 9 -12 1 -25 -3 -28 -9z"/>
<path d="M13440 10192 c0 -14 46 -34 66 -29 14 3 11 6 -13 12 -18 4 -33 11
-33 16 0 5 -4 9 -10 9 -5 0 -10 -4 -10 -8z"/>
<path d="M13130 10128 c0 -4 9 -8 19 -8 11 0 28 -3 38 -6 13 -4 15 -3 4 4 -10
7 -10 11 -1 14 7 2 -3 4 -23 4 -21 0 -37 -4 -37 -8z"/>
<path d="M13240 10127 c19 -6 37 -14 40 -17 3 -3 23 -1 45 5 l40 12 -32 5
c-18 2 -34 0 -36 -5 -2 -6 -11 -5 -24 2 -12 6 -32 11 -45 10 -18 -1 -15 -3 12
-12z"/>
<path d="M15325 10119 c18 -15 25 -29 23 -44 -3 -12 0 -22 7 -22 15 0 7 47
-13 70 -8 9 -22 17 -30 17 -9 0 -4 -8 13 -21z"/>
<path d="M13120 10101 c0 -6 6 -11 13 -11 8 0 7 -4 -3 -10 -12 -8 -11 -10 7
-10 12 0 25 5 29 11 3 6 16 9 28 6 11 -2 32 -1 46 3 18 5 12 7 -26 7 -28 0
-61 4 -72 8 -13 4 -22 2 -22 -4z"/>
<path d="M15299 10089 c24 -23 35 -21 25 5 -3 9 -16 16 -27 16 -20 0 -20 0 2
-21z"/>
<path d="M12814 10045 c13 -13 76 -8 76 6 0 5 -20 8 -44 7 -34 -1 -42 -4 -32
-13z"/>
<path d="M12940 10051 c0 -6 -8 -11 -17 -11 -15 0 -14 -2 3 -15 24 -18 31 -18
37 -1 3 8 -1 20 -9 26 -10 9 -14 9 -14 1z"/>
<path d="M12980 10050 c0 -6 11 -8 28 -4 39 10 40 14 4 14 -18 0 -32 -5 -32
-10z"/>
<path d="M15405 10050 c11 -5 14 -9 8 -9 -18 -1 -16 -12 6 -40 l18 -23 -2 29
c-2 38 -12 53 -33 52 -14 0 -13 -2 3 -9z"/>
<path d="M13058 10043 c7 -3 16 -2 19 1 4 3 -2 6 -13 5 -11 0 -14 -3 -6 -6z"/>
<path d="M15370 10032 c0 -5 7 -15 15 -22 8 -7 15 -8 15 -2 0 5 -7 15 -15 22
-8 7 -15 8 -15 2z"/>
<path d="M12798 10002 c-2 -17 1 -29 7 -29 6 0 9 12 7 29 -2 15 -5 28 -7 28
-2 0 -5 -13 -7 -28z"/>
<path d="M12855 10002 c-4 -11 0 -13 17 -8 13 3 31 6 41 6 10 0 16 4 12 9 -9
15 -63 10 -70 -7z"/>
<path d="M12620 9965 c-18 -10 -20 -14 -8 -15 9 0 18 -5 20 -12 3 -9 12 -9 39
0 l34 12 -32 -5 c-24 -3 -33 -1 -33 10 0 9 14 15 43 18 l42 4 -40 1 c-22 1
-51 -5 -65 -13z"/>
<path d="M12758 9973 c7 -3 16 -2 19 1 4 3 -2 6 -13 5 -11 0 -14 -3 -6 -6z"/>
<path d="M15450 9969 c0 -9 15 -13 40 -9 10 1 9 -3 -5 -14 -11 -8 -15 -16 -9
-16 10 0 52 39 43 41 -38 6 -69 5 -69 -2z"/>
<path d="M12718 9953 c7 -3 16 -2 19 1 4 3 -2 6 -13 5 -11 0 -14 -3 -6 -6z"/>
<path d="M12588 9933 c6 -2 18 -2 25 0 6 3 1 5 -13 5 -14 0 -19 -2 -12 -5z"/>
<path d="M15496 9922 c-3 -5 1 -9 9 -9 8 0 15 4 15 9 0 4 -4 8 -9 8 -6 0 -12
-4 -15 -8z"/>
<path d="M12300 9889 c54 -17 139 -23 120 -9 -12 10 -11 11 9 6 18 -4 21 -2
13 6 -9 9 -18 8 -36 -2 -15 -7 -36 -10 -53 -6 -15 4 -41 9 -58 11 -27 4 -26 3
5 -6z"/>
<path d="M15560 9890 c13 -9 13 -11 0 -20 -14 -9 -7 -15 14 -11 5 1 12 -3 16
-10 4 -6 7 2 7 18 -1 24 -6 29 -27 31 -20 1 -22 0 -10 -8z"/>
<path d="M12240 9880 c0 -5 5 -10 10 -10 6 0 10 -7 10 -15 0 -8 -4 -15 -10
-15 -5 0 -10 -4 -10 -9 0 -5 16 -2 34 7 36 16 39 32 5 32 -10 0 -19 5 -19 10
0 6 -4 10 -10 10 -5 0 -10 -4 -10 -10z"/>
<path d="M11943 9813 c9 -2 23 -2 30 0 6 3 -1 5 -18 5 -16 0 -22 -2 -12 -5z"/>
<path d="M12050 9805 c0 -8 3 -14 8 -13 4 0 14 -2 23 -6 8 -4 26 -3 38 2 23 8
23 8 -5 21 -24 11 -26 10 -14 -3 10 -13 10 -16 -3 -16 -8 0 -17 7 -21 15 -3 8
-10 15 -16 15 -5 0 -10 -7 -10 -15z"/>
<path d="M12155 9810 c-3 -5 3 -10 15 -10 12 0 18 5 15 10 -3 6 -10 10 -15 10
-5 0 -12 -4 -15 -10z"/>
<path d="M15660 9806 c16 -16 12 -26 -7 -19 -16 6 -16 5 -4 -10 16 -20 23 -16
26 16 2 15 -2 24 -11 24 -10 0 -11 -4 -4 -11z"/>
<path d="M11920 9790 c0 -5 15 -11 33 -15 17 -4 41 -9 52 -11 16 -4 17 -3 5 5
-13 9 -13 11 2 11 9 0 18 -4 20 -9 2 -4 12 -5 23 -1 17 6 14 9 -15 13 -74 12
-120 15 -120 7z"/>
<path d="M11928 9753 c7 -3 16 -2 19 1 4 3 -2 6 -13 5 -11 0 -14 -3 -6 -6z"/>
<path d="M11600 9724 c0 -14 3 -15 18 -3 9 7 19 15 21 16 2 2 -5 3 -17 3 -14
0 -22 -6 -22 -16z"/>
<path d="M11760 9726 c12 -5 32 -5 52 1 31 10 30 11 -20 9 -40 -1 -48 -3 -32
-10z"/>
<path d="M11888 9733 c6 -2 18 -2 25 0 6 3 1 5 -13 5 -14 0 -19 -2 -12 -5z"/>
<path d="M15701 9737 c2 -2 18 -11 34 -22 23 -14 27 -15 17 -3 -10 13 -10 17
0 21 7 3 -2 6 -21 6 -19 1 -32 0 -30 -2z"/>
<path d="M11671 9723 c-30 -12 -73 -73 -51 -73 5 0 11 9 15 19 8 26 28 41 61
47 16 3 31 7 33 10 6 6 -41 4 -58 -3z"/>
<path d="M11810 9710 c-8 -5 -10 -10 -5 -10 6 0 17 5 25 10 8 5 11 10 5 10 -5
0 -17 -5 -25 -10z"/>
<path d="M11735 9690 c-3 -6 1 -7 9 -4 18 7 21 14 7 14 -6 0 -13 -4 -16 -10z"/>
<path d="M11660 9670 c0 -5 7 -7 15 -4 8 4 15 8 15 10 0 2 -7 4 -15 4 -8 0
-15 -4 -15 -10z"/>
<path d="M11393 9652 c-18 -2 -33 -7 -33 -13 0 -12 67 -12 75 0 8 13 -5 17
-42 13z"/>
<path d="M11450 9656 c0 -9 37 -12 55 -5 15 6 11 8 -17 8 -21 1 -38 -1 -38 -3z"/>
<path d="M11550 9650 c8 -5 20 -10 25 -10 6 0 3 5 -5 10 -8 5 -19 10 -25 10
-5 0 -3 -5 5 -10z"/>
<path d="M15810 9645 c7 -8 16 -12 21 -9 13 8 1 24 -18 24 -13 0 -13 -3 -3
-15z"/>
<path d="M11490 9630 c-11 -7 -5 -8 20 -4 43 8 51 14 19 14 -13 0 -31 -5 -39
-10z"/>
<path d="M11378 9613 c-10 -2 -18 -9 -18 -14 0 -6 9 -7 23 -3 12 4 38 11 57
15 l35 7 -40 0 c-22 0 -48 -2 -57 -5z"/>
<path d="M11056 9565 c11 -9 39 -14 69 -13 l50 1 -45 4 c-25 3 -49 8 -54 14
-6 5 -17 9 -25 9 -11 0 -10 -4 5 -15z"/>
<path d="M11108 9573 c7 -3 16 -2 19 1 4 3 -2 6 -13 5 -11 0 -14 -3 -6 -6z"/>
<path d="M11178 9573 c7 -3 16 -2 19 1 4 3 -2 6 -13 5 -11 0 -14 -3 -6 -6z"/>
<path d="M11214 9571 c3 -5 16 -11 28 -14 22 -6 22 -5 4 8 -22 17 -40 20 -32
6z"/>
<path d="M15872 9575 c2 -1 13 -8 26 -14 17 -9 22 -9 22 1 0 7 -12 14 -26 14
-14 1 -24 1 -22 -1z"/>
<path d="M11040 9540 c0 -11 48 -25 57 -16 9 8 3 12 -29 20 -17 4 -28 2 -28
-4z"/>
<path d="M11188 9543 c6 -2 18 -2 25 0 6 3 1 5 -13 5 -14 0 -19 -2 -12 -5z"/>
<path d="M11036 9503 c-6 -14 -5 -15 5 -6 7 7 10 15 7 18 -3 3 -9 -2 -12 -12z"/>
<path d="M10720 9490 c0 -13 11 -13 30 0 12 8 11 10 -7 10 -13 0 -23 -4 -23
-10z"/>
<path d="M10838 9490 c-9 -6 -25 -9 -35 -8 -42 3 -60 -3 -73 -27 -11 -21 -11
-27 0 -38 7 -6 10 -7 7 -1 -12 22 19 48 57 47 20 -1 36 3 36 9 0 5 12 8 28 5
15 -2 21 -2 14 0 -7 3 -10 9 -7 14 8 12 -5 11 -27 -1z"/>
<path d="M10900 9490 c0 -6 7 -13 15 -17 24 -9 27 1 5 15 -13 8 -20 8 -20 2z"/>
<path d="M10975 9490 c-3 -5 -1 -10 4 -10 6 0 11 5 11 10 0 6 -2 10 -4 10 -3
0 -8 -4 -11 -10z"/>
<path d="M15983 9485 c0 -8 4 -12 9 -9 5 3 6 10 3 15 -9 13 -12 11 -12 -6z"/>
<path d="M16018 9493 c7 -3 16 -2 19 1 4 3 -2 6 -13 5 -11 0 -14 -3 -6 -6z"/>
<path d="M16050 9474 c0 -8 5 -12 10 -9 6 4 8 11 5 16 -9 14 -15 11 -15 -7z"/>
<path d="M16020 9461 c0 -5 5 -13 10 -16 6 -3 10 -2 10 4 0 5 -4 13 -10 16 -5
3 -10 2 -10 -4z"/>
<path d="M10868 9453 c7 -3 16 -2 19 1 4 3 -2 6 -13 5 -11 0 -14 -3 -6 -6z"/>
<path d="M10793 9440 c-32 -13 -29 -21 5 -10 56 18 58 18 37 19 -11 0 -30 -4
-42 -9z"/>
<path d="M10493 9406 c-10 -11 -9 -15 3 -20 23 -9 24 -8 24 14 0 23 -10 25
-27 6z"/>
<path d="M10554 9413 c11 -3 26 -11 34 -19 7 -8 21 -14 30 -14 11 0 5 8 -16
20 -18 11 -40 19 -50 19 -14 -1 -14 -2 2 -6z"/>
<path d="M10658 9413 c6 -2 18 -2 25 0 6 3 1 5 -13 5 -14 0 -19 -2 -12 -5z"/>
<path d="M16071 9414 c-1 -5 15 -25 34 -44 19 -19 35 -29 35 -24 0 6 -9 19
-19 28 -11 10 -17 24 -14 32 3 8 0 14 -7 14 -6 0 -8 -4 -5 -10 3 -5 2 -10 -4
-10 -5 0 -12 6 -14 13 -3 6 -6 7 -6 1z"/>
<path d="M16130 9410 c-13 -9 -13 -11 0 -20 10 -6 16 -6 18 0 7 20 -3 30 -18
20z"/>
<path d="M10648 9393 c7 -3 16 -2 19 1 4 3 -2 6 -13 5 -11 0 -14 -3 -6 -6z"/>
<path d="M10548 9373 c7 -3 16 -2 19 1 4 3 -2 6 -13 5 -11 0 -14 -3 -6 -6z"/>
<path d="M10480 9361 c0 -5 9 -7 20 -4 11 3 20 7 20 9 0 2 -9 4 -20 4 -11 0
-20 -4 -20 -9z"/>
<path d="M10259 9331 c11 -7 11 -10 0 -15 -8 -3 -1 -4 14 -1 16 3 26 2 24 -2
-3 -5 3 -9 14 -9 27 0 24 5 -16 22 -38 16 -58 18 -36 5z"/>
<path d="M10342 9324 c14 -7 32 -9 51 -3 44 13 41 15 -18 15 -48 0 -52 -2 -33
-12z"/>
<path d="M16198 9320 c12 -11 26 -20 32 -20 5 0 1 9 -10 20 -11 11 -25 20 -32
20 -6 0 -2 -9 10 -20z"/>
<path d="M10175 9320 c11 -5 31 -8 45 -8 l25 0 -25 8 c-14 4 -34 8 -45 8 l-20
1 20 -9z"/>
<path d="M10166 9291 c-3 -4 -1 -13 5 -21 7 -12 9 -12 9 3 0 16 6 18 38 13 20
-4 43 -3 49 2 7 4 -11 8 -42 9 -30 1 -57 -2 -59 -6z"/>
<path d="M16231 9268 c-1 -21 15 -32 25 -17 4 7 3 9 -4 5 -6 -3 -13 2 -15 11
-4 16 -5 16 -6 1z"/>
<path d="M9887 9253 c-13 -12 -7 -26 6 -15 6 5 23 12 37 15 22 4 21 4 -6 6
-17 0 -34 -2 -37 -6z"/>
<path d="M9999 9250 c-1 -3 -1 -8 0 -12 0 -4 -15 -4 -34 -1 -21 3 -35 1 -35
-5 0 -13 63 -22 71 -10 3 5 28 12 55 14 71 7 73 19 3 19 -32 1 -60 -2 -60 -5z"/>
<path d="M16295 9240 c20 -23 29 -21 19 4 -3 9 -13 16 -22 16 -13 0 -12 -3 3
-20z"/>
<path d="M16266 9232 c-3 -6 1 -13 10 -16 23 -9 28 -2 10 13 -8 7 -17 8 -20 3z"/>
<path d="M16312 9190 c2 -8 14 -19 26 -25 12 -5 23 -16 26 -25 3 -12 4 -11 5
3 0 9 6 17 12 17 6 0 8 -8 4 -19 -3 -11 -1 -22 4 -25 9 -6 9 5 2 58 0 5 -8 3
-16 -4 -11 -9 -15 -9 -15 -1 0 7 -5 9 -12 5 -6 -4 -18 2 -26 12 -9 12 -13 14
-10 4z"/>
<path d="M9610 9170 c8 -5 28 -10 44 -10 39 0 30 6 -19 13 -27 4 -35 3 -25 -3z"/>
<path d="M9353 9088 c16 -6 33 -6 37 -2 5 5 -7 10 -28 10 -37 2 -37 2 -9 -8z"/>
<path d="M16410 9097 c0 -3 16 -17 35 -31 27 -21 35 -23 35 -12 0 9 -8 16 -17
16 -15 0 -14 2 3 15 10 8 14 15 7 15 -6 0 -15 -5 -18 -10 -4 -7 -13 -7 -26 0
-10 6 -19 9 -19 7z"/>
<path d="M9289 9071 c7 -5 9 -11 5 -13 -5 -3 -3 -3 4 -1 8 1 20 3 28 3 9 0 12
5 9 10 -3 6 -18 10 -33 10 -19 0 -23 -3 -13 -9z"/>
<path d="M9100 9016 c0 -2 15 -6 34 -8 19 -2 32 0 30 4 -5 8 -64 12 -64 4z"/>
<path d="M16529 8991 c20 -20 27 -22 30 -11 2 8 -2 16 -8 18 -6 2 -9 7 -6 12
2 4 -6 8 -18 8 l-23 0 25 -27z"/>
<path d="M8960 8994 c0 -15 26 -19 34 -5 3 5 -3 11 -14 14 -13 3 -20 0 -20 -9z"/>
<path d="M8990 8970 c0 -5 5 -10 10 -10 6 0 10 5 10 10 0 6 -4 10 -10 10 -5 0
-10 -4 -10 -10z"/>
<path d="M8653 8928 c15 -10 59 -10 74 0 6 4 -11 7 -37 7 -27 0 -44 -3 -37 -7z"/>
<path d="M16601 8924 c6 -8 15 -12 19 -9 5 3 11 -3 13 -12 3 -11 4 -8 4 7 -1
19 -7 25 -24 26 -19 2 -22 -1 -12 -12z"/>
<path d="M8778 8923 c7 -3 16 -2 19 1 4 3 -2 6 -13 5 -11 0 -14 -3 -6 -6z"/>
<path d="M8368 8853 c7 -3 16 -2 19 1 4 3 -2 6 -13 5 -11 0 -14 -3 -6 -6z"/>
<path d="M8400 8851 c0 -21 70 -22 135 -2 l30 9 -31 1 c-17 1 -34 -2 -37 -5
-10 -11 -67 -13 -61 -3 3 5 -4 9 -15 9 -12 0 -21 -4 -21 -9z"/>
<path d="M16695 8850 c4 -6 11 -8 16 -5 14 9 11 15 -7 15 -8 0 -12 -5 -9 -10z"/>
<path d="M8335 8841 c-3 -5 -1 -12 5 -16 5 -3 10 1 10 9 0 18 -6 21 -15 7z"/>
<path d="M8178 8773 c7 -3 16 -2 19 1 4 3 -2 6 -13 5 -11 0 -14 -3 -6 -6z"/>
<path d="M8130 8760 c-12 -8 -11 -10 8 -10 12 0 22 5 22 10 0 13 -11 13 -30 0z"/>
<path d="M7818 8693 c7 -3 16 -2 19 1 4 3 -2 6 -13 5 -11 0 -14 -3 -6 -6z"/>
<path d="M7898 8693 c7 -3 16 -2 19 1 4 3 -2 6 -13 5 -11 0 -14 -3 -6 -6z"/>
<path d="M16910 8692 c0 -14 39 -46 47 -39 3 4 -2 16 -12 27 -19 21 -35 26
-35 12z"/>
<path d="M7766 8671 c-3 -4 6 -6 19 -3 14 2 25 6 25 8 0 8 -39 4 -44 -5z"/>
<path d="M7813 8664 c-18 -8 -33 -16 -33 -19 0 -12 40 -4 55 11 8 9 22 13 30
10 8 -3 15 -1 15 4 0 14 -29 11 -67 -6z"/>
<path d="M16960 8610 c0 -5 7 -10 15 -10 8 0 15 -7 15 -15 0 -8 6 -15 14 -15
7 0 16 -9 19 -20 3 -13 13 -20 29 -19 17 1 18 3 6 6 -10 2 -18 8 -18 13 0 11
-59 70 -71 70 -5 0 -9 -4 -9 -10z"/>
<path d="M7440 8560 c0 -5 9 -10 20 -10 11 0 20 5 20 10 0 6 -9 10 -20 10 -11
0 -20 -4 -20 -10z"/>
<path d="M7135 8520 c-10 -11 -15 -23 -12 -27 8 -7 47 25 47 39 0 14 -16 9
-35 -12z"/>
<path d="M17080 8528 c0 -22 17 -41 29 -34 6 4 10 17 10 29 -1 17 -2 18 -6 5
-2 -10 -8 -18 -13 -18 -5 0 -7 7 -4 15 4 8 1 15 -5 15 -6 0 -11 -6 -11 -12z"/>
<path d="M7210 8521 c0 -5 9 -7 20 -4 11 3 20 7 20 9 0 2 -9 4 -20 4 -11 0
-20 -4 -20 -9z"/>
<path d="M6880 8448 c0 -17 65 -24 75 -8 4 6 -4 10 -19 10 -13 0 -31 3 -40 6
-10 4 -16 1 -16 -8z"/>
<path d="M17135 8453 c11 -2 30 -18 43 -36 19 -28 22 -29 22 -11 0 24 -40 55
-67 53 -15 -1 -15 -2 2 -6z"/>
<path d="M6890 8410 c-12 -8 -12 -10 5 -9 11 0 29 4 40 9 18 8 18 9 -5 9 -14
0 -32 -4 -40 -9z"/>
<path d="M6593 8368 c-18 -6 -33 -15 -33 -20 0 -11 37 -1 65 18 22 16 14 16
-32 2z"/>
<path d="M17237 8373 c16 -3 20 -9 16 -21 -6 -15 -5 -15 11 -3 13 11 14 16 4
22 -7 5 -22 8 -33 7 -18 -1 -18 -1 2 -5z"/>
<path d="M6645 8350 c-7 -12 22 -12 50 0 17 7 15 9 -12 9 -17 1 -35 -3 -38 -9z"/>
<path d="M6585 8330 c-4 -6 5 -10 19 -10 14 0 26 5 26 10 0 6 -9 10 -19 10
-11 0 -23 -4 -26 -10z"/>
<path d="M6240 8290 c0 -13 11 -13 30 0 12 8 11 10 -7 10 -13 0 -23 -4 -23
-10z"/>
<path d="M6286 8283 c-29 -7 -48 -31 -43 -51 4 -14 6 -14 12 6 4 12 15 22 24
22 10 0 26 7 37 15 20 15 10 18 -30 8z"/>
<path d="M6347 8283 c-3 -5 8 -8 24 -9 15 -1 26 3 23 7 -6 11 -41 12 -47 2z"/>
<path d="M6178 8213 c6 -2 18 -2 25 0 6 3 1 5 -13 5 -14 0 -19 -2 -12 -5z"/>
<path d="M6013 8193 c9 -2 23 -2 30 0 6 3 -1 5 -18 5 -16 0 -22 -2 -12 -5z"/>
<path d="M17254 8180 c10 -53 24 -94 25 -75 0 11 -6 38 -15 60 -8 22 -13 29
-10 15z"/>
<path d="M5776 8129 c4 -6 -14 -8 -48 -4 -39 5 -49 4 -38 -4 18 -13 150 -11
150 3 0 5 -3 7 -6 4 -3 -4 -19 -2 -35 2 -19 6 -27 5 -23 -1z"/>
<path d="M17222 8112 c-7 -21 -6 -31 5 -41 13 -12 16 -12 24 0 7 12 9 12 9 0
0 -8 2 -12 5 -9 11 11 -7 37 -22 31 -13 -5 -15 -1 -9 20 8 35 1 35 -12 -1z"/>
<path d="M5400 8050 c-11 -7 -5 -8 20 -4 43 8 51 14 19 14 -13 0 -31 -5 -39
-10z"/>
<path d="M5360 8036 c0 -27 61 -48 75 -26 4 6 -6 10 -22 10 -16 0 -34 5 -41
12 -7 7 -12 9 -12 4z"/>
<path d="M17187 7990 c-3 -11 -1 -23 4 -26 5 -3 9 6 9 20 0 31 -6 34 -13 6z"/>
<path d="M5053 7965 c11 -11 23 -12 47 -5 17 5 46 7 63 5 29 -4 29 -4 7 4 -14
5 -49 9 -78 10 -47 1 -52 -1 -39 -14z"/>
<path d="M5214 7972 c5 -8 66 -4 66 4 0 2 -16 4 -36 4 -19 0 -33 -4 -30 -8z"/>
<path d="M17191 7924 c0 -11 3 -14 6 -6 3 7 2 16 -1 19 -3 4 -6 -2 -5 -13z"/>
<path d="M17173 7895 c0 -22 2 -30 4 -17 2 12 2 30 0 40 -3 9 -5 -1 -4 -23z"/>
<path d="M4818 7893 c-21 -5 -24 -23 -5 -23 7 0 22 7 33 15 20 15 9 18 -28 8z"/>
<path d="M4874 7884 c-18 -14 -18 -15 6 -8 31 8 50 24 29 24 -8 0 -24 -7 -35
-16z"/>
<path d="M17192 7860 c0 -14 2 -19 5 -12 2 6 2 18 0 25 -3 6 -5 1 -5 -13z"/>
<path d="M17147 7854 c3 -9 0 -20 -8 -26 -12 -8 -11 -9 1 -5 17 4 27 47 11 47
-6 0 -8 -7 -4 -16z"/>
<path d="M4698 7813 c7 -3 16 -2 19 1 4 3 -2 6 -13 5 -11 0 -14 -3 -6 -6z"/>
<path d="M4480 7799 c0 -5 19 -9 42 -9 49 0 47 5 -4 13 -21 3 -38 2 -38 -4z"/>
<path d="M4510 7770 c0 -5 5 -10 10 -10 6 0 10 5 10 10 0 6 -4 10 -10 10 -5 0
-10 -4 -10 -10z"/>
<path d="M4196 7731 c-3 -5 1 -12 10 -15 20 -8 29 -1 19 13 -8 13 -22 14 -29
2z"/>
<path d="M4325 7724 c-22 -7 -29 -12 -15 -9 14 3 35 5 48 5 12 0 22 5 22 10 0
12 -5 12 -55 -6z"/>
<path d="M17101 7679 c-14 -39 -14 -57 -2 -43 10 10 25 74 18 74 -3 0 -10 -14
-16 -31z"/>
<path d="M3912 7651 c-11 -7 -11 -9 2 -14 8 -3 18 -2 21 3 9 15 25 12 25 -5 0
-8 4 -15 8 -15 4 0 8 9 8 20 0 15 -7 20 -26 20 -14 0 -31 -4 -38 -9z"/>
<path d="M3996 7652 c-2 -4 4 -8 14 -9 11 -1 22 2 25 8 4 5 -3 9 -14 9 -11 0
-22 -4 -25 -8z"/>
<path d="M3850 7625 c-17 -21 -9 -27 13 -10 10 7 14 16 9 19 -5 3 -15 -1 -22
-9z"/>
<path d="M17070 7638 c0 -3 7 -19 15 -34 8 -16 15 -22 15 -14 -1 8 -7 24 -15
34 -8 11 -15 17 -15 14z"/>
<path d="M3876 7609 c-17 -17 -18 -19 -3 -19 9 0 17 4 17 9 0 5 8 11 18 13 14
3 14 5 2 9 -8 4 -24 -2 -34 -12z"/>
<path d="M3606 7565 c-3 -8 -2 -15 3 -15 5 0 14 7 21 15 10 12 10 15 -3 15 -8
0 -17 -7 -21 -15z"/>
<path d="M3680 7565 c0 -8 5 -15 11 -15 5 0 7 5 4 10 -3 6 1 10 10 10 9 0 14
-4 11 -9 -3 -5 1 -11 9 -15 18 -7 20 5 3 22 -17 17 -48 15 -48 -3z"/>
<path d="M3635 7539 c-11 -17 -2 -18 19 -3 17 12 17 14 4 14 -9 0 -20 -5 -23
-11z"/>
<path d="M3475 7490 c-16 -7 -14 -8 10 -8 17 0 43 -5 59 -11 25 -10 27 -9 22
5 -5 12 -2 15 9 10 9 -3 14 -2 11 3 -7 10 -84 11 -111 1z"/>
<path d="M3488 7463 c7 -3 16 -2 19 1 4 3 -2 6 -13 5 -11 0 -14 -3 -6 -6z"/>
<path d="M17020 7460 c0 -8 5 -22 10 -30 9 -13 10 -13 10 0 0 8 -5 22 -10 30
-9 13 -10 13 -10 0z"/>
<path d="M3447 7440 c-3 -11 -2 -20 3 -20 4 0 10 9 13 20 3 11 2 20 -3 20 -4
0 -10 -9 -13 -20z"/>
<path d="M17013 7382 c1 -23 5 -42 10 -42 10 0 9 52 -2 69 -6 10 -9 1 -8 -27z"/>
<path d="M3308 7383 c7 -3 16 -2 19 1 4 3 -2 6 -13 5 -11 0 -14 -3 -6 -6z"/>
<path d="M3328 7363 c7 -3 16 -2 19 1 4 3 -2 6 -13 5 -11 0 -14 -3 -6 -6z"/>
<path d="M3291 7344 c0 -11 3 -14 6 -6 3 7 2 16 -1 19 -3 4 -6 -2 -5 -13z"/>
<path d="M3090 7241 c0 -4 12 -7 26 -5 38 4 42 14 6 14 -18 0 -32 -4 -32 -9z"/>
<path d="M16937 7203 c-4 -3 -7 -13 -7 -22 1 -13 3 -13 11 2 11 19 8 33 -4 20z"/>
<path d="M3018 7173 c6 -2 10 -9 7 -14 -4 -5 1 -6 10 -2 13 5 14 7 3 14 -7 5
-17 8 -23 8 -5 0 -4 -3 3 -6z"/>
<path d="M2963 7155 c0 -8 4 -15 9 -15 4 0 8 4 8 9 0 6 -4 12 -8 15 -5 3 -9
-1 -9 -9z"/>
<path d="M2993 7145 c0 -8 4 -12 9 -9 4 3 8 9 8 15 0 5 -4 9 -8 9 -5 0 -9 -7
-9 -15z"/>
<path d="M16936 7145 c4 -8 8 -15 10 -15 2 0 4 7 4 15 0 8 -4 15 -10 15 -5 0
-7 -7 -4 -15z"/>
<path d="M16916 7127 c3 -10 9 -15 12 -12 3 3 0 11 -7 18 -10 9 -11 8 -5 -6z"/>
<path d="M16928 7095 c-7 -9 -19 -23 -27 -31 -20 -22 -5 -29 17 -8 18 18 36
54 27 54 -2 0 -10 -7 -17 -15z"/>
<path d="M2815 7080 c-10 -11 -15 -23 -12 -27 8 -7 47 25 47 39 0 14 -16 9
-35 -12z"/>
<path d="M16930 7030 c0 -5 7 -10 15 -10 8 0 15 5 15 10 0 6 -7 10 -15 10 -8
0 -15 -4 -15 -10z"/>
<path d="M2754 7010 c-20 -8 -39 -38 -30 -47 2 -3 7 5 11 16 5 16 14 20 37 18
19 -1 32 3 34 11 1 7 0 8 -3 2 -2 -5 -12 -10 -21 -10 -15 0 -15 2 -2 10 18 12
3 12 -26 0z"/>
<path d="M16866 6958 c-8 -31 -7 -48 2 -48 4 0 8 16 9 35 2 40 -2 45 -11 13z"/>
<path d="M16850 6879 c0 -5 -5 -7 -11 -3 -7 4 -7 -1 1 -15 9 -17 9 -26 0 -37
-7 -7 -16 -11 -21 -8 -5 3 -9 -2 -9 -11 0 -25 32 -14 47 15 7 14 9 28 3 34 -4
4 -6 15 -3 22 3 8 2 14 -1 14 -3 0 -6 -5 -6 -11z"/>
<path d="M2565 6850 c3 -5 11 -10 16 -10 6 0 7 5 4 10 -3 6 -11 10 -16 10 -6
0 -7 -4 -4 -10z"/>
<path d="M2582 6818 c-7 -7 -11 -21 -11 -32 1 -20 1 -20 6 -1 3 11 13 25 22
32 9 7 11 13 6 13 -6 0 -16 -5 -23 -12z"/>
<path d="M16860 6790 c0 -5 5 -10 10 -10 6 0 10 5 10 10 0 6 -4 10 -10 10 -5
0 -10 -4 -10 -10z"/>
<path d="M16792 6720 c0 -14 2 -19 5 -12 2 6 2 18 0 25 -3 6 -5 1 -5 -13z"/>
<path d="M16771 6684 c0 -11 3 -14 6 -6 3 7 2 16 -1 19 -3 4 -6 -2 -5 -13z"/>
<path d="M16789 6683 c-8 -105 -9 -146 -3 -140 8 7 16 147 9 147 -3 0 -5 -3
-6 -7z"/>
<path d="M2405 6610 c-3 -6 1 -7 9 -4 18 7 21 14 7 14 -6 0 -13 -4 -16 -10z"/>
<path d="M2443 6604 c0 -7 6 -10 14 -7 7 3 13 8 13 12 0 4 -6 8 -13 8 -8 0
-14 -6 -14 -13z"/>
<path d="M16736 6574 c-3 -9 -6 -17 -6 -18 0 -1 9 -2 20 -3 11 -1 20 4 20 12
0 19 -27 26 -34 9z"/>
<path d="M2340 6528 c0 -9 5 -20 10 -23 13 -8 13 5 0 25 -8 13 -10 13 -10 -2z"/>
<path d="M2365 6530 c-3 -5 -1 -10 4 -10 6 0 11 5 11 10 0 6 -2 10 -4 10 -3 0
-8 -4 -11 -10z"/>
<path d="M2390 6528 c0 -4 4 -8 9 -8 6 0 12 4 15 8 3 5 -1 9 -9 9 -8 0 -15 -4
-15 -9z"/>
<path d="M2362 6490 c-7 -11 -8 -20 -2 -20 5 0 14 9 20 20 6 11 7 20 3 20 -5
0 -14 -9 -21 -20z"/>
<path d="M16711 6494 c0 -11 3 -14 6 -6 3 7 2 16 -1 19 -3 4 -6 -2 -5 -13z"/>
<path d="M16711 6444 c0 -11 3 -14 6 -6 3 7 2 16 -1 19 -3 4 -6 -2 -5 -13z"/>
<path d="M16684 6386 c-28 -30 -27 -86 1 -86 19 0 28 17 14 26 -8 5 -10 2 -5
-7 4 -8 1 -6 -8 5 -13 16 -13 21 1 42 17 27 15 40 -3 20z"/>
<path d="M16712 6370 c0 -19 2 -27 5 -17 2 9 2 25 0 35 -3 9 -5 1 -5 -18z"/>
<path d="M2257 6363 c3 -7 0 -13 -7 -13 -6 0 -8 -5 -5 -11 5 -6 12 -4 21 8 17
23 17 30 0 30 -8 0 -12 -6 -9 -14z"/>
<path d="M2244 6300 c0 -13 4 -16 10 -10 7 7 7 13 0 20 -6 6 -10 3 -10 -10z"/>
<path d="M2175 6280 c-10 -11 -15 -23 -12 -27 8 -7 47 25 47 39 0 14 -16 9
-35 -12z"/>
<path d="M2219 6233 c-13 -16 -12 -17 4 -4 9 7 17 15 17 17 0 8 -8 3 -21 -13z"/>
<path d="M2160 6190 c0 -16 2 -30 4 -30 2 0 6 14 8 30 3 17 1 30 -4 30 -4 0
-8 -13 -8 -30z"/>
<path d="M16624 6185 c0 -18 3 -32 8 -29 10 6 11 64 1 64 -5 0 -8 -16 -9 -35z"/>
<path d="M16611 6095 c1 -40 1 -40 10 -10 5 18 5 33 -1 39 -7 7 -10 -4 -9 -29z"/>
<path d="M16581 6074 c0 -11 3 -14 6 -6 3 7 2 16 -1 19 -3 4 -6 -2 -5 -13z"/>
<path d="M16631 6074 c0 -11 3 -14 6 -6 3 7 2 16 -1 19 -3 4 -6 -2 -5 -13z"/>
<path d="M2080 6041 c0 -12 4 -19 10 -16 13 8 13 -8 -1 -22 -7 -7 -6 -12 4
-16 10 -4 13 3 12 24 -2 37 -25 65 -25 30z"/>
<path d="M16545 5923 c-4 -13 -12 -23 -18 -23 -7 0 -7 -4 1 -12 15 -15 16 -32
2 -23 -15 9 -12 -14 4 -30 11 -11 13 -8 12 23 -1 20 2 42 7 49 5 7 7 18 4 25
-4 8 -8 5 -12 -9z"/>
<path d="M2046 5884 c-9 -23 -7 -34 4 -34 5 0 6 7 3 17 -4 11 -3 14 5 9 7 -4
12 -3 12 3 0 17 -18 21 -24 5z"/>
<path d="M2013 5850 c0 -23 3 -28 9 -16 5 9 5 23 0 32 -6 12 -9 7 -9 -16z"/>
<path d="M2009 5803 c0 -5 -3 -20 -5 -35 -2 -14 0 -29 6 -33 6 -4 9 9 8 34 -1
36 -6 55 -9 34z"/>
<path d="M16462 5694 c-1 -15 2 -22 8 -19 12 7 13 32 2 39 -4 2 -9 -7 -10 -20z"/>
<path d="M16450 5638 c0 -39 16 -51 17 -13 1 19 -3 35 -8 35 -5 0 -9 -10 -9
-22z"/>
<path d="M1948 5629 c-20 -21 -24 -34 -7 -23 6 3 14 1 18 -5 4 -7 8 2 8 19 0
16 -1 30 -1 29 -1 0 -9 -9 -18 -20z"/>
<path d="M16436 5597 c3 -10 9 -15 12 -12 3 3 0 11 -7 18 -10 9 -11 8 -5 -6z"/>
<path d="M1946 5577 c3 -10 9 -15 12 -12 3 3 0 11 -7 18 -10 9 -11 8 -5 -6z"/>
<path d="M1920 5542 c0 -23 4 -42 8 -42 10 0 9 66 -1 76 -4 4 -7 -11 -7 -34z"/>
<path d="M16382 5435 c0 -11 3 -29 8 -40 11 -25 11 1 0 35 -6 20 -8 21 -8 5z"/>
<path d="M1921 5404 c0 -11 3 -14 6 -6 3 7 2 16 -1 19 -3 4 -6 -2 -5 -13z"/>
<path d="M16352 5340 c-7 -11 -8 -20 -3 -20 9 0 24 30 18 36 -1 2 -8 -6 -15
-16z"/>
<path d="M16380 5320 c-6 -21 -18 -44 -28 -49 -15 -9 -14 -10 6 -11 13 0 21 4
17 9 -3 5 -1 12 4 15 5 4 12 -2 14 -11 3 -10 4 6 4 35 -1 28 -2 52 -4 52 -1 0
-7 -18 -13 -40z"/>
<path d="M16295 5180 c-16 -30 -12 -56 6 -45 5 4 9 -4 10 -17 0 -13 3 -17 6
-10 3 8 0 24 -7 37 -9 17 -9 28 -1 44 7 11 9 21 7 21 -3 0 -13 -14 -21 -30z"/>
<path d="M1843 5125 c0 -22 2 -30 4 -17 2 12 2 30 0 40 -3 9 -5 -1 -4 -23z"/>
<path d="M1881 5134 c0 -11 3 -14 6 -6 3 7 2 16 -1 19 -3 4 -6 -2 -5 -13z"/>
<path d="M1861 5114 c0 -11 3 -14 6 -6 3 7 2 16 -1 19 -3 4 -6 -2 -5 -13z"/>
<path d="M1872 5093 c-10 -4 -10 -8 -1 -19 6 -8 16 -14 21 -14 6 0 6 6 -1 14
-9 11 -9 15 1 19 7 3 9 5 3 5 -5 0 -16 -2 -23 -5z"/>
<path d="M1849 5032 c5 -34 6 -35 9 -8 2 16 0 32 -5 37 -5 5 -7 -7 -4 -29z"/>
<path d="M1870 5040 c0 -6 7 -10 15 -10 8 0 15 2 15 4 0 2 -7 6 -15 10 -8 3
-15 1 -15 -4z"/>
<path d="M1862 4960 c0 -14 2 -19 5 -12 2 6 2 18 0 25 -3 6 -5 1 -5 -13z"/>
<path d="M1841 4954 c0 -11 3 -14 6 -6 3 7 2 16 -1 19 -3 4 -6 -2 -5 -13z"/>
<path d="M15798 4958 c14 -7 26 -8 32 -2 6 6 -2 10 -23 11 -30 2 -31 1 -9 -9z"/>
<path d="M15640 4950 c-22 -7 -20 -8 12 -7 20 1 34 5 31 10 -5 8 -9 8 -43 -3z"/>
<path d="M1888 4909 c3 -31 0 -43 -14 -54 -14 -10 -21 -10 -26 -2 -6 9 -8 9
-8 0 0 -6 5 -15 11 -18 6 -4 15 -17 20 -29 7 -17 8 -15 4 10 -5 23 -2 33 9 37
17 7 23 81 8 91 -4 2 -6 -14 -4 -35z"/>
<path d="M15380 4870 c-24 -8 -24 -8 7 -9 17 -1 35 4 38 9 7 11 -9 11 -45 0z"/>
<path d="M15458 4873 c7 -3 16 -2 19 1 4 3 -2 6 -13 5 -11 0 -14 -3 -6 -6z"/>
<path d="M1843 4777 c-1 -30 -1 -31 8 -8 5 14 6 28 2 32 -4 4 -9 -6 -10 -24z"/>
<path d="M15265 4790 c3 -5 8 -10 11 -10 2 0 4 5 4 10 0 6 -5 10 -11 10 -5 0
-7 -4 -4 -10z"/>
<path d="M15188 4783 c12 -2 30 -2 40 0 9 3 -1 5 -23 4 -22 0 -30 -2 -17 -4z"/>
<path d="M1892 4750 c0 -14 2 -19 5 -12 2 6 2 18 0 25 -3 6 -5 1 -5 -13z"/>
<path d="M1861 4724 c0 -11 3 -14 6 -6 3 7 2 16 -1 19 -3 4 -6 -2 -5 -13z"/>
<path d="M1876 4705 c-3 -9 -6 -22 -5 -28 0 -7 5 -1 10 12 5 13 8 26 5 28 -2
2 -6 -3 -10 -12z"/>
<path d="M1890 4650 c0 -5 5 -10 11 -10 5 0 7 5 4 10 -3 6 -8 10 -11 10 -2 0
-4 -4 -4 -10z"/>
<path d="M1841 4634 c0 -11 3 -14 6 -6 3 7 2 16 -1 19 -3 4 -6 -2 -5 -13z"/>
<path d="M14603 4643 c9 -2 23 -2 30 0 6 3 -1 5 -18 5 -16 0 -22 -2 -12 -5z"/>
<path d="M14313 4609 c-42 -12 -42 -18 0 -16 19 1 34 7 34 15 0 6 -1 12 -1 11
-1 0 -16 -5 -33 -10z"/>
<path d="M14238 4583 c7 -3 16 -2 19 1 4 3 -2 6 -13 5 -11 0 -14 -3 -6 -6z"/>
<path d="M14183 4564 c9 -3 15 -9 13 -13 -3 -4 2 -8 10 -8 24 0 9 22 -17 24
-15 1 -17 0 -6 -3z"/>
<path d="M14375 4550 c-3 -5 1 -10 9 -10 9 0 16 5 16 10 0 6 -4 10 -9 10 -6 0
-13 -4 -16 -10z"/>
<path d="M14145 4540 c4 -6 11 -8 16 -5 14 9 11 15 -7 15 -8 0 -12 -5 -9 -10z"/>
<path d="M14146 4503 c-6 -14 -5 -15 5 -6 7 7 10 15 7 18 -3 3 -9 -2 -12 -12z"/>
<path d="M14126 4441 c-14 -21 -31 -42 -38 -45 -7 -3 -4 -5 7 -3 12 1 27 17
37 37 13 26 18 30 18 15 0 -11 -6 -30 -14 -41 -13 -17 -12 -20 3 -20 13 0 17
10 18 48 0 26 -1 48 -3 48 -2 0 -15 -18 -28 -39z"/>
<path d="M14100 4438 c-12 -22 -12 -22 6 -6 10 10 15 20 12 24 -4 3 -12 -5
-18 -18z"/>
<path d="M14065 4359 c5 -15 4 -19 -4 -15 -6 4 -11 2 -11 -4 0 -7 6 -10 13 -8
15 6 22 48 7 48 -7 0 -9 -8 -5 -21z"/>
<path d="M1935 4310 c3 -5 8 -10 11 -10 2 0 4 5 4 10 0 6 -5 10 -11 10 -5 0
-7 -4 -4 -10z"/>
<path d="M1933 4218 c-1 -28 18 -50 50 -61 9 -4 17 -2 17 3 0 6 -9 10 -20 10
-11 0 -23 8 -26 18 -3 9 -9 26 -13 37 -7 17 -8 16 -8 -7z"/>
<path d="M13967 4110 c7 -56 13 -64 14 -19 0 28 2 30 9 14 8 -19 9 -19 9 4 1
16 -3 21 -13 18 -9 -4 -17 1 -19 11 -3 9 -3 -3 0 -28z"/>
<path d="M2010 4051 c0 -5 5 -13 10 -16 6 -3 10 -2 10 4 0 5 -4 13 -10 16 -5
3 -10 2 -10 -4z"/>
<path d="M13826 4007 c-18 -13 -18 -14 0 -21 10 -4 15 -4 11 0 -4 4 -2 13 4
21 15 17 8 17 -15 0z"/>
<path d="M13900 4009 c11 -8 8 -9 -15 -5 -22 5 -26 4 -15 -4 22 -15 50 -12 50
5 0 8 -8 15 -17 15 -16 0 -16 -2 -3 -11z"/>
<path d="M13594 3946 c-23 -12 -39 -26 -37 -33 6 -17 40 -16 46 1 4 10 -1 13
-16 10 -12 -2 -5 3 16 12 20 9 37 21 37 25 0 5 -1 9 -2 8 -2 -1 -22 -11 -44
-23z"/>
<path d="M13655 3940 c3 -5 8 -10 11 -10 2 0 4 5 4 10 0 6 -5 10 -11 10 -5 0
-7 -4 -4 -10z"/>
<path d="M13640 3916 c14 -7 29 -10 34 -8 11 6 -20 20 -44 21 -8 0 -4 -5 10
-13z"/>
<path d="M13502 3912 c-8 -6 -2 -9 18 -9 20 0 26 3 18 9 -7 4 -15 8 -18 8 -3
0 -11 -4 -18 -8z"/>
<path d="M13618 3903 c7 -3 16 -2 19 1 4 3 -2 6 -13 5 -11 0 -14 -3 -6 -6z"/>
<path d="M13250 3870 c0 -5 7 -10 15 -10 8 0 15 5 15 10 0 6 -7 10 -15 10 -8
0 -15 -4 -15 -10z"/>
<path d="M13337 3865 c-16 -12 -16 -13 -1 -19 9 -4 19 -4 22 -1 3 3 -1 5 -9 5
-12 0 -12 2 1 10 8 5 12 11 10 14 -3 2 -13 -1 -23 -9z"/>
<path d="M13246 3841 c-3 -5 3 -11 13 -14 14 -3 18 -1 14 9 -6 16 -19 18 -27
5z"/>
<path d="M13290 3836 c0 -2 9 -6 20 -9 11 -3 18 -1 14 4 -5 9 -34 13 -34 5z"/>
<path d="M2091 3778 c-1 -20 15 -32 24 -18 4 6 11 8 16 5 5 -3 6 1 2 11 -5 15
-7 15 -16 -2 -10 -17 -11 -17 -18 1 -6 16 -8 17 -8 3z"/>
<path d="M12968 3763 c7 -3 16 -2 19 1 4 3 -2 6 -13 5 -11 0 -14 -3 -6 -6z"/>
<path d="M13005 3755 c-25 -12 -26 -14 -5 -9 14 4 29 10 35 15 12 12 5 11 -30
-6z"/>
<path d="M12700 3675 c7 -9 15 -13 17 -11 7 7 -7 26 -19 26 -6 0 -6 -6 2 -15z"/>
<path d="M12383 3603 c-13 -2 -23 -9 -23 -14 0 -14 30 -11 46 6 9 8 12 14 7
14 -4 -1 -18 -4 -30 -6z"/>
<path d="M12456 3601 c-17 -6 -17 -8 -4 -14 10 -3 19 0 22 9 3 8 4 14 3 13 -1
0 -11 -4 -21 -8z"/>
<path d="M12260 3596 c0 -2 7 -7 16 -10 8 -3 12 -2 9 4 -6 10 -25 14 -25 6z"/>
<path d="M11790 3470 c-9 -6 -10 -10 -3 -10 6 0 15 5 18 10 8 12 4 12 -15 0z"/>
<path d="M11715 3450 c-3 -5 -3 -10 2 -10 4 0 1 -5 -7 -11 -13 -9 -13 -10 0
-6 8 2 14 10 12 17 -1 6 3 10 10 7 7 -2 12 -9 11 -14 -1 -5 10 -9 25 -10 25
-2 25 -1 6 7 -12 5 -25 13 -29 19 -8 14 -22 14 -30 1z"/>
<path d="M11765 3451 c16 -16 62 -24 69 -12 4 6 1 9 -7 5 -7 -2 -27 0 -43 6
-17 7 -25 7 -19 1z"/>
<path d="M11455 3360 c-3 -5 -1 -10 4 -10 6 0 11 5 11 10 0 6 -2 10 -4 10 -3
0 -8 -4 -11 -10z"/>
<path d="M11556 3361 c-3 -5 5 -11 19 -13 28 -6 34 6 9 16 -20 8 -22 8 -28 -3z"/>
<path d="M11485 3350 c-4 -6 5 -10 20 -10 15 0 24 4 20 10 -3 6 -12 10 -20 10
-8 0 -17 -4 -20 -10z"/>
<path d="M11210 3300 c8 -5 28 -10 44 -10 39 0 30 6 -19 13 -27 4 -35 3 -25
-3z"/>
<path d="M2362 3288 c5 -15 28 -23 28 -10 0 5 -7 13 -16 16 -10 4 -14 1 -12
-6z"/>
<path d="M11148 3283 c7 -3 16 -2 19 1 4 3 -2 6 -13 5 -11 0 -14 -3 -6 -6z"/>
<path d="M11085 3270 c-3 -6 1 -7 9 -4 18 7 21 14 7 14 -6 0 -13 -4 -16 -10z"/>
<path d="M11120 3268 c0 -10 71 -10 87 0 6 4 -11 7 -38 7 -27 0 -49 -3 -49 -7z"/>
<path d="M11230 3276 c0 -2 11 -6 25 -8 13 -3 22 -1 19 3 -5 9 -44 13 -44 5z"/>
<path d="M10905 3230 c-3 -5 -1 -10 4 -10 6 0 11 5 11 10 0 6 -2 10 -4 10 -3
0 -8 -4 -11 -10z"/>
<path d="M10937 3223 c-11 -11 -8 -21 9 -27 14 -5 15 -4 5 8 -9 11 -9 15 1 19
7 3 8 6 2 6 -6 1 -14 -2 -17 -6z"/>
<path d="M10860 3208 c0 -9 7 -19 16 -22 15 -6 15 -4 3 11 -7 10 -15 20 -16
22 -2 2 -3 -3 -3 -11z"/>
<path d="M2465 3200 c-5 -9 -4 -11 3 -6 11 6 16 -6 13 -26 0 -5 4 -8 9 -8 14
0 13 13 -3 35 -11 14 -16 15 -22 5z"/>
<path d="M10902 3198 c2 -6 10 -14 16 -16 7 -2 10 2 6 12 -7 18 -28 22 -22 4z"/>
<path d="M10615 3110 c3 -5 8 -10 11 -10 2 0 4 5 4 10 0 6 -5 10 -11 10 -5 0
-7 -4 -4 -10z"/>
<path d="M10365 3060 c-10 -11 -13 -20 -8 -20 13 0 38 29 31 35 -3 3 -13 -4
-23 -15z"/>
<path d="M2562 3038 c2 -5 8 -9 13 -9 5 0 11 4 13 9 1 5 -4 9 -13 9 -9 0 -14
-4 -13 -9z"/>
<path d="M10275 3040 c6 -10 3 -12 -13 -8 -12 4 -22 2 -22 -3 0 -12 71 -11 90
1 12 8 11 10 -7 10 -12 0 -29 3 -39 7 -13 5 -15 3 -9 -7z"/>
<path d="M10194 3028 c12 -7 21 -7 28 0 6 6 0 10 -18 10 -23 0 -24 -2 -10 -10z"/>
<path d="M8563 3002 c0 -10 7 -19 14 -19 6 0 9 5 6 10 -3 5 1 13 8 18 11 6 8
9 -8 9 -15 0 -21 -6 -20 -18z"/>
<path d="M8340 2990 c0 -5 9 -10 20 -10 11 0 20 5 20 10 0 6 -9 10 -20 10 -11
0 -20 -4 -20 -10z"/>
<path d="M8370 2966 c0 -2 7 -6 15 -10 8 -3 15 -1 15 4 0 6 -7 10 -15 10 -8 0
-15 -2 -15 -4z"/>
<path d="M10050 2960 c-8 -5 -10 -10 -5 -10 6 0 17 5 25 10 8 5 11 10 5 10 -5
0 -17 -5 -25 -10z"/>
<path d="M9685 2901 c-3 -5 4 -12 15 -16 11 -4 18 -11 15 -16 -9 -14 8 -10 30
8 16 13 17 15 3 10 -10 -4 -26 -3 -35 0 -15 6 -15 7 3 14 18 7 17 8 -3 8 -12
1 -24 -3 -28 -8z"/>
<path d="M9675 2870 c-3 -5 -1 -10 4 -10 6 0 11 5 11 10 0 6 -2 10 -4 10 -3 0
-8 -4 -11 -10z"/>
<path d="M8506 2847 c3 -10 9 -15 12 -12 3 3 0 11 -7 18 -10 9 -11 8 -5 -6z"/>
<path d="M8486 2827 c3 -10 9 -15 12 -12 3 3 0 11 -7 18 -10 9 -11 8 -5 -6z"/>
<path d="M9415 2790 c-16 -7 -17 -9 -3 -9 9 -1 20 4 23 9 7 11 7 11 -20 0z"/>
<path d="M9134 2755 c-10 -8 -14 -14 -9 -15 15 0 40 18 34 24 -3 3 -14 -1 -25
-9z"/>
<path d="M9180 2735 c7 -9 15 -13 17 -11 7 7 -7 26 -19 26 -6 0 -6 -6 2 -15z"/>
<path d="M2915 2721 c-3 -5 -2 -12 3 -15 5 -3 9 1 9 9 0 17 -3 19 -12 6z"/>
<path d="M2944 2708 c-4 -7 -3 -8 4 -4 7 4 12 2 12 -3 0 -23 2 -26 23 -39 l22
-13 -23 4 c-12 3 -20 1 -16 -4 3 -5 12 -9 20 -9 8 0 14 -4 14 -10 0 -5 5 -10
11 -10 8 0 8 5 -1 15 -17 21 -1 19 24 -2 21 -18 21 -18 3 3 -9 11 -14 24 -10
28 4 4 0 4 -9 1 -17 -7 -48 19 -48 41 0 17 -16 19 -26 2z"/>
<path d="M7320 2710 c19 -13 30 -13 30 0 0 6 -10 10 -22 10 -19 0 -20 -2 -8
-10z"/>
<path d="M7370 2710 c8 -5 22 -10 30 -10 13 0 13 1 0 10 -8 5 -22 10 -30 10
-13 0 -13 -1 0 -10z"/>
<path d="M7450 2710 c-11 -7 -3 -9 27 -7 24 1 43 5 43 10 0 10 -52 8 -70 -3z"/>
<path d="M9010 2716 c0 -2 7 -7 16 -10 8 -3 12 -2 9 4 -6 10 -25 14 -25 6z"/>
<path d="M8427 2693 c-10 -9 -9 -33 1 -33 4 0 8 9 8 20 0 23 0 22 -9 13z"/>
<path d="M7177 2671 c-3 -12 -16 -21 -33 -24 l-29 -4 28 -2 c28 -1 57 18 57
38 0 19 -17 12 -23 -8z"/>
<path d="M8852 2667 c-10 -12 -9 -16 4 -21 21 -8 23 -6 15 17 -6 17 -9 17 -19
4z"/>
<path d="M7069 2652 c11 -8 9 -11 -8 -17 -13 -4 -21 -9 -18 -11 2 -2 19 2 38
10 19 9 29 15 22 16 -6 0 -20 3 -30 6 -14 4 -15 4 -4 -4z"/>
<path d="M8776 2638 c5 -8 -3 -9 -30 -5 -22 3 -34 2 -31 -4 8 -12 85 -12 85 0
0 5 -7 12 -16 15 -10 4 -13 2 -8 -6z"/>
<path d="M8436 2625 c4 -8 8 -15 10 -15 2 0 4 7 4 15 0 8 -4 15 -10 15 -5 0
-7 -7 -4 -15z"/>
<path d="M7178 2623 c7 -3 16 -2 19 1 4 3 -2 6 -13 5 -11 0 -14 -3 -6 -6z"/>
<path d="M8406 2557 c3 -10 9 -15 12 -12 3 3 0 11 -7 18 -10 9 -11 8 -5 -6z"/>
<path d="M3208 2543 c-10 -21 -2 -77 12 -80 12 -4 13 -3 1 5 -11 8 -10 11 5
15 16 4 17 5 2 6 -10 0 -18 5 -18 11 0 5 6 7 14 4 8 -3 17 -1 21 5 4 7 0 8
-11 4 -12 -4 -15 -3 -10 5 4 7 2 12 -4 12 -6 0 -8 5 -5 10 3 6 4 10 1 10 -3 0
-6 -3 -8 -7z"/>
<path d="M6678 2543 c7 -3 16 -2 19 1 4 3 -2 6 -13 5 -11 0 -14 -3 -6 -6z"/>
<path d="M6808 2543 c7 -3 16 -2 19 1 4 3 -2 6 -13 5 -11 0 -14 -3 -6 -6z"/>
<path d="M6627 2525 c-4 -8 -2 -17 3 -20 6 -4 10 3 10 14 0 25 -6 27 -13 6z"/>
<path d="M3264 2503 c4 -8 2 -13 -5 -13 -9 0 -9 -3 0 -14 6 -7 23 -13 37 -13
13 0 24 0 22 1 -2 0 -16 12 -32 26 -16 14 -26 19 -22 13z m21 -23 c3 -5 1 -10
-4 -10 -6 0 -11 5 -11 10 0 6 2 10 4 10 3 0 8 -4 11 -10z"/>
<path d="M6360 2470 c-23 -7 -23 -8 -3 -9 12 -1 25 4 28 9 3 6 5 10 3 9 -2 -1
-14 -5 -28 -9z"/>
<path d="M6310 2460 c-9 -6 -10 -10 -3 -10 6 0 15 5 18 10 8 12 4 12 -15 0z"/>
<path d="M3363 2436 c0 -7 5 -13 11 -13 6 0 20 -4 31 -8 24 -10 19 -5 -16 17
-19 12 -26 13 -26 4z"/>
<path d="M6225 2429 c28 -11 63 -11 70 1 3 5 -14 9 -42 8 -35 -1 -42 -3 -28
-9z"/>
<path d="M3439 2407 c6 -8 7 -18 3 -22 -4 -5 -1 -5 6 -1 10 6 10 11 1 22 -6 8
-14 14 -16 14 -3 0 0 -6 6 -13z"/>
<path d="M6130 2410 c-8 -5 -26 -10 -39 -10 -40 0 -15 -12 31 -15 30 -2 37 0
23 5 -16 7 -17 9 -3 9 20 1 35 21 16 21 -7 0 -20 -5 -28 -10z"/>
<path d="M6190 2410 c-12 -8 -9 -10 13 -10 15 0 27 5 27 10 0 13 -20 13 -40 0z"/>
<path d="M6288 2413 c-22 -5 -24 -23 -3 -23 8 0 15 5 15 11 0 5 5 7 10 4 6 -3
10 -1 10 4 0 11 -3 12 -32 4z"/>
<path d="M3365 2401 c-7 -12 12 -24 25 -16 11 7 4 25 -10 25 -5 0 -11 -4 -15
-9z"/>
<path d="M5920 2351 c0 -4 18 -8 40 -9 22 -2 40 1 40 5 0 5 -18 9 -40 9 -22 1
-40 -2 -40 -5z"/>
<path d="M5870 2325 l25 -14 -25 -1 c-15 0 -31 5 -36 10 -11 11 -44 4 -44 -9
0 -10 108 -12 115 -1 3 5 -6 15 -20 20 -37 14 -44 12 -15 -5z"/>
<path d="M5920 2323 c0 -5 19 -9 43 -10 31 -2 37 0 22 7 -25 11 -65 12 -65 3z"/>
<path d="M3610 2309 c0 -5 5 -7 10 -4 6 3 10 8 10 11 0 2 -4 4 -10 4 -5 0 -10
-5 -10 -11z"/>
<path d="M5625 2257 c7 -17 -26 -29 -46 -16 -11 7 -9 9 6 10 11 0 15 3 8 5 -6
3 -33 -2 -60 -11 -27 -8 -35 -13 -19 -11 17 2 40 0 52 -4 13 -5 38 -4 62 3 44
13 64 27 39 27 -8 0 -23 3 -31 6 -12 4 -15 2 -11 -9z"/>
<path d="M3785 2250 c28 -12 37 -12 30 0 -3 6 -16 10 -28 9 -21 0 -21 -1 -2
-9z"/>
<path d="M3710 2230 c8 -5 20 -10 25 -10 6 0 3 5 -5 10 -8 5 -19 10 -25 10 -5
0 -3 -5 5 -10z"/>
<path d="M5648 2223 c6 -2 18 -2 25 0 6 3 1 5 -13 5 -14 0 -19 -2 -12 -5z"/>
<path d="M5385 2200 c-16 -7 -17 -9 -3 -9 9 -1 20 4 23 9 7 11 7 11 -20 0z"/>
<path d="M5305 2175 c-6 -10 -29 -17 -63 -19 -72 -5 -79 -16 -10 -14 56 1 93
18 87 37 -3 7 -8 5 -14 -4z"/>
<path d="M5395 2183 c-11 -3 -25 -9 -32 -14 -6 -6 -13 -6 -15 -2 -1 5 -11 1
-20 -9 -16 -16 -15 -17 26 -16 24 0 50 5 57 10 9 5 4 6 -13 2 -18 -4 -28 -2
-28 5 0 6 8 11 18 11 9 0 24 5 32 10 16 10 8 11 -25 3z"/>
<path d="M3962 2168 c5 -15 28 -23 28 -10 0 5 -7 13 -16 16 -10 4 -14 1 -12
-6z"/>
<path d="M4460 2111 c-25 -7 -25 -7 -2 -13 12 -3 22 -2 22 4 0 6 14 8 36 3 24
-4 34 -3 29 4 -7 12 -46 13 -85 2z"/>
<path d="M4595 2111 c3 -6 -16 -13 -41 -17 -26 -4 -59 -13 -73 -21 l-26 -15
25 6 c14 4 49 12 78 18 30 7 52 18 52 25 0 7 -5 13 -11 13 -5 0 -8 -4 -4 -9z"/>
<path d="M4870 2110 c12 -8 10 -10 -10 -11 l-25 -1 25 -8 c14 -4 34 -8 45 -8
16 0 15 2 -5 9 -19 7 -14 8 20 4 50 -5 30 7 -30 18 -25 5 -31 4 -20 -3z"/>
<path d="M4740 2095 c7 -8 24 -15 39 -15 25 1 25 1 -8 15 -42 19 -47 19 -31 0z"/>
<path d="M4410 2085 c7 -8 20 -15 29 -15 13 1 13 3 -3 15 -26 19 -42 19 -26 0z"/>
<path d="M4545 2070 c-15 -6 -9 -8 22 -7 24 1 37 5 30 9 -15 9 -26 9 -52 -2z"/>
<path d="M4720 2069 c0 -5 5 -7 10 -4 6 3 10 8 10 11 0 2 -4 4 -10 4 -5 0 -10
-5 -10 -11z"/>
<path d="M4845 2070 c3 -5 10 -10 16 -10 5 0 9 5 9 10 0 6 -7 10 -16 10 -8 0
-12 -4 -9 -10z"/>
</g>
</svg>
